<svg width="800" height="800" viewBox="0 0 800 800" fill="none" xmlns="http://www.w3.org/2000/svg">
<g clip-path="url(#clip0_1298_63)">
<path fill-rule="evenodd" clip-rule="evenodd" d="M163.732 0H636.266C726.318 0 799.998 73.6799 799.998 163.732V636.266C799.998 726.318 726.318 799.998 636.266 799.998H163.732C73.6799 800 0 726.32 0 636.266V163.732C0 73.6799 73.6799 0 163.732 0Z" fill="#BD9FE9"/>
<path fill-rule="evenodd" clip-rule="evenodd" d="M399.223 132.519C561.32 132.519 692.724 237.742 692.724 367.542C692.724 412.88 676.681 455.211 648.907 491.113C647.532 493.157 645.737 495.414 643.473 497.909L643.301 498.095C633.814 509.446 623.13 520.103 611.383 529.939C530.219 604.96 396.624 694.277 378.992 680.497C363.664 668.519 404.238 609.932 357.427 600.182C354.162 599.807 350.905 599.405 347.675 598.947L347.614 598.943V598.939C210.129 579.407 105.723 483.239 105.723 367.542C105.719 237.742 237.126 132.519 399.223 132.519Z" fill="#7B3FD3"/>
<path d="M204.388 228.952C200.889 228.952 198.415 228.781 196.964 228.44C195.513 228.013 194.617 227.459 194.276 226.776C194.02 226.093 193.892 225.411 193.892 224.728C193.892 223.789 194.361 222.936 195.3 222.168C196.324 221.315 198.372 220.632 201.444 220.12C205.369 219.267 209.977 218.413 215.268 217.56C220.644 216.621 226.361 215.768 232.42 215C238.479 214.147 244.537 213.379 250.596 212.696C256.74 212.013 262.585 211.501 268.132 211.16C273.764 210.733 278.756 210.52 283.108 210.52C288.911 210.52 292.836 211.032 294.884 212.056C297.017 213.08 298.084 214.189 298.084 215.384C298.084 216.493 297.487 217.517 296.292 218.456C295.183 219.395 293.263 219.864 290.532 219.864C289.423 219.864 286.863 220.12 282.852 220.632C278.841 221.059 273.935 221.656 268.132 222.424C262.415 223.107 256.356 223.875 249.956 224.728C249.529 227.629 248.889 231.469 248.036 236.248C247.183 240.941 246.201 246.104 245.092 251.736C244.068 257.368 243.001 263.043 241.892 268.76C240.868 274.392 239.887 279.64 238.948 284.504C238.095 289.368 237.369 293.379 236.772 296.536C236.175 299.693 235.833 301.571 235.748 302.168C235.407 304.813 234.639 306.819 233.444 308.184C232.335 309.464 231.097 310.104 229.732 310.104C228.111 310.104 226.745 309.421 225.636 308.056C224.612 306.605 224.1 304.088 224.1 300.504C224.1 299.309 224.356 297.005 224.868 293.592C225.38 290.093 226.063 285.955 226.916 281.176C227.769 276.397 228.708 271.32 229.732 265.944C230.756 260.568 231.78 255.32 232.804 250.2C233.828 244.995 234.767 240.301 235.62 236.12C236.473 231.853 237.113 228.525 237.54 226.136C230.799 226.904 224.441 227.587 218.468 228.184C212.58 228.696 207.887 228.952 204.388 228.952ZM302.491 313.688C301.126 313.688 300.016 313.219 299.163 312.28C298.31 311.341 297.883 309.677 297.883 307.288C297.883 305.496 298.438 302.595 299.547 298.584C300.742 294.488 302.32 289.709 304.283 284.248C306.331 278.787 308.592 273.027 311.067 266.968C313.627 260.824 316.272 254.723 319.003 248.664C321.734 242.605 324.422 237.016 327.067 231.896C329.712 226.691 332.144 222.296 334.363 218.712C336.582 215.128 338.459 212.781 339.995 211.672C341.787 210.392 343.451 209.752 344.987 209.752C345.84 209.752 346.694 209.837 347.547 210.008C348.4 210.179 349.126 210.477 349.723 210.904C351.259 211.843 352.582 213.933 353.691 217.176C354.886 220.333 355.91 224.216 356.763 228.824C357.616 233.347 358.299 238.211 358.811 243.416C359.408 248.536 359.92 253.613 360.347 258.648C362.907 258.307 365.04 258.051 366.747 257.88C368.454 257.709 369.691 257.624 370.459 257.624C373.36 257.624 375.195 258.008 375.963 258.776C376.731 259.544 377.158 260.44 377.243 261.464C377.414 263 376.987 264.365 375.963 265.56C374.939 266.755 373.488 267.651 371.611 268.248C371.014 268.419 369.734 268.717 367.771 269.144C365.894 269.485 363.632 269.912 360.987 270.424C361.072 272.984 361.115 275.373 361.115 277.592C361.2 279.725 361.243 281.56 361.243 283.096C361.243 290.861 360.774 296.707 359.835 300.632C358.896 304.472 357.744 307.075 356.379 308.44C355.014 309.805 353.691 310.488 352.411 310.488C350.875 310.488 349.808 310.061 349.211 309.208C348.614 308.269 348.315 306.947 348.315 305.24V296.152C348.315 292.995 348.272 289.411 348.187 285.4C348.187 281.304 348.144 276.995 348.059 272.472C343.024 273.325 337.904 274.136 332.699 274.904C327.579 275.672 323.142 276.355 319.387 276.952C317.51 281.816 315.888 286.211 314.523 290.136C313.158 293.976 312.219 296.92 311.707 298.968C310.427 303.235 309.275 306.435 308.251 308.568C307.227 310.616 306.246 311.981 305.307 312.664C304.454 313.347 303.515 313.688 302.491 313.688ZM323.739 265.56C328.176 264.536 332.4 263.597 336.411 262.744C340.507 261.891 344.262 261.165 347.675 260.568C347.419 252.888 346.95 245.549 346.267 238.552C345.67 231.469 344.774 225.88 343.579 221.784C341.958 224.6 340.038 228.355 337.819 233.048C335.6 237.741 333.254 242.947 330.779 248.664C328.39 254.296 326.043 259.928 323.739 265.56ZM434.787 317.144C432.056 317.144 429.198 316.461 426.211 315.096C423.31 313.816 420.835 311.683 418.787 308.696C416.824 305.624 415.843 301.571 415.843 296.536C415.843 290.648 416.355 284.419 417.379 277.848C418.403 271.277 419.726 264.707 421.347 258.136C423.054 251.48 424.931 245.165 426.979 239.192C429.027 233.219 431.075 227.885 433.123 223.192C435.256 218.499 437.219 214.829 439.011 212.184C440.803 209.453 442.296 208.088 443.491 208.088C445.112 208.088 446.478 208.728 447.587 210.008C448.782 211.288 449.379 213.08 449.379 215.384C449.379 216.323 448.824 218.541 447.715 222.04C446.606 225.453 445.198 229.763 443.491 234.968C441.784 240.173 439.95 245.805 437.987 251.864C436.11 257.923 434.318 264.024 432.611 270.168C430.904 276.312 429.496 282.115 428.387 287.576C427.278 293.037 426.723 297.688 426.723 301.528C426.723 302.637 427.022 303.704 427.619 304.728C428.216 305.667 429.198 306.136 430.563 306.136C432.44 306.136 435.128 305.709 438.627 304.856C442.211 304.003 446.094 302.979 450.275 301.784C454.456 300.504 458.467 299.267 462.307 298.072C466.147 296.877 469.39 295.853 472.035 295C474.68 294.147 476.174 293.72 476.515 293.72C477.539 293.72 478.392 294.019 479.075 294.616C479.758 295.128 480.099 295.939 480.099 297.048C480.099 298.413 479.075 299.992 477.027 301.784C475.064 303.576 472.419 305.368 469.091 307.16C465.848 308.952 462.222 310.573 458.211 312.024C454.2 313.56 450.147 314.797 446.051 315.736C442.04 316.675 438.286 317.144 434.787 317.144ZM576.695 311C576.695 311.853 576.226 312.707 575.287 313.56C574.348 314.413 572.898 314.883 570.935 314.968C568.46 314.968 565.687 313.987 562.615 312.024C559.628 310.147 556.471 307.587 553.143 304.344C549.815 301.016 546.487 297.304 543.159 293.208C539.831 289.112 536.631 284.888 533.559 280.536C530.487 276.099 527.714 271.832 525.239 267.736C523.191 276.525 521.527 283.949 520.247 290.008C519.052 296.067 517.9 300.675 516.791 303.832C515.767 306.904 514.487 308.44 512.951 308.44C511.586 308.44 510.263 307.629 508.983 306.008C507.788 304.301 507.191 301.101 507.191 296.408C507.191 293.933 507.362 291.416 507.703 288.856C508.044 286.211 508.642 283.096 509.495 279.512C510.348 275.843 511.5 271.235 512.951 265.688C512.012 264.92 511.415 264.152 511.159 263.384C510.903 262.616 510.775 261.763 510.775 260.824C510.775 259.629 511.116 258.435 511.799 257.24C512.482 256.045 513.804 255.149 515.767 254.552C518.754 244.568 521.143 236.675 522.935 230.872C524.727 224.984 526.306 220.803 527.671 218.328C529.122 215.768 530.658 214.488 532.279 214.488C535.778 214.488 537.527 216.579 537.527 220.76C537.527 222.296 536.802 225.709 535.351 231C533.9 236.205 531.682 244.227 528.695 255.064C535.436 250.2 541.751 245.208 547.639 240.088C553.527 234.968 558.903 230.104 563.767 225.496C568.631 220.803 572.898 216.621 576.567 212.952C580.236 209.283 583.223 206.381 585.527 204.248C587.831 202.115 589.367 201.048 590.135 201.048C591.586 201.048 592.78 201.517 593.719 202.456C594.743 203.395 595.255 204.461 595.255 205.656C595.255 207.107 594.658 208.515 593.463 209.88C591.415 212.269 588.684 215.384 585.271 219.224C581.858 223.064 578.018 227.203 573.751 231.64C569.484 235.992 565.004 240.259 560.311 244.44C555.703 248.621 551.095 252.333 546.487 255.576C541.879 258.733 537.57 260.952 533.559 262.232C534.754 263.597 535.948 265.005 537.143 266.456C538.338 267.907 539.447 269.315 540.471 270.68C543.543 274.691 547.042 278.957 550.967 283.48C554.978 288.003 559.031 292.312 563.127 296.408C567.223 300.419 570.935 303.747 574.263 306.392C575.884 307.843 576.695 309.379 576.695 311ZM221.412 494.144C218.681 494.144 215.823 493.461 212.836 492.096C209.935 490.816 207.46 488.683 205.412 485.696C203.449 482.624 202.468 478.571 202.468 473.536C202.468 467.648 202.98 461.419 204.004 454.848C205.028 448.277 206.351 441.707 207.972 435.136C209.679 428.48 211.556 422.165 213.604 416.192C215.652 410.219 217.7 404.885 219.748 400.192C221.881 395.499 223.844 391.829 225.636 389.184C227.428 386.453 228.921 385.088 230.116 385.088C231.737 385.088 233.103 385.728 234.212 387.008C235.407 388.288 236.004 390.08 236.004 392.384C236.004 393.323 235.449 395.541 234.34 399.04C233.231 402.453 231.823 406.763 230.116 411.968C228.409 417.173 226.575 422.805 224.612 428.864C222.735 434.923 220.943 441.024 219.236 447.168C217.529 453.312 216.121 459.115 215.012 464.576C213.903 470.037 213.348 474.688 213.348 478.528C213.348 479.637 213.647 480.704 214.244 481.728C214.841 482.667 215.823 483.136 217.188 483.136C219.065 483.136 221.753 482.709 225.252 481.856C228.836 481.003 232.719 479.979 236.9 478.784C241.081 477.504 245.092 476.267 248.932 475.072C252.772 473.877 256.015 472.853 258.66 472C261.305 471.147 262.799 470.72 263.14 470.72C264.164 470.72 265.017 471.019 265.7 471.616C266.383 472.128 266.724 472.939 266.724 474.048C266.724 475.413 265.7 476.992 263.652 478.784C261.689 480.576 259.044 482.368 255.716 484.16C252.473 485.952 248.847 487.573 244.836 489.024C240.825 490.56 236.772 491.797 232.676 492.736C228.665 493.675 224.911 494.144 221.412 494.144ZM308.36 414.272C304.691 414.272 302.216 413.76 300.936 412.736C299.741 411.712 299.144 410.731 299.144 409.792C299.144 408.427 299.827 407.189 301.192 406.08C302.643 404.971 304.392 404.203 306.44 403.776C308.915 403.264 311.901 402.752 315.4 402.24C318.984 401.643 322.696 401.131 326.536 400.704C330.376 400.192 334.131 399.808 337.8 399.552C341.469 399.296 344.669 399.168 347.4 399.168C350.984 399.168 353.715 399.851 355.592 401.216C357.555 402.496 358.536 403.691 358.536 404.8C358.536 404.885 358.536 405.056 358.536 405.312C358.536 405.995 358.408 406.592 358.152 407.104C357.896 407.616 357.043 408.128 355.592 408.64C354.227 409.067 351.88 409.536 348.552 410.048C345.309 410.475 340.701 410.944 334.728 411.456C333.533 411.541 332.211 411.669 330.76 411.84C330.419 414.144 329.907 417.173 329.224 420.928C328.541 424.683 327.773 428.864 326.92 433.472C326.067 438.08 325.171 442.816 324.232 447.68C323.293 452.459 322.355 457.024 321.416 461.376C320.563 465.728 319.795 469.568 319.112 472.896C318.515 476.224 318.045 478.741 317.704 480.448C322.141 479.851 326.067 479.467 329.48 479.296C332.979 479.04 335.325 478.912 336.52 478.912C339.677 478.912 341.256 480.107 341.256 482.496C341.256 483.179 339.805 484.16 336.904 485.44C334.003 486.72 330.291 488.043 325.768 489.408C321.245 490.773 316.552 492.053 311.688 493.248C307.677 494.187 303.709 494.912 299.784 495.424C295.944 495.936 293.171 496.192 291.464 496.192C289.587 496.192 288.264 495.851 287.496 495.168C286.728 494.571 286.344 493.675 286.344 492.48C286.344 491.285 286.685 490.091 287.368 488.896C288.136 487.701 289.16 486.848 290.44 486.336C292.744 485.483 295.304 484.715 298.12 484.032C300.936 483.264 303.795 482.581 306.696 481.984C306.696 481.557 306.696 481.045 306.696 480.448C306.696 479.253 306.909 476.992 307.336 473.664C307.848 470.336 308.488 466.368 309.256 461.76C310.024 457.067 310.877 452.203 311.816 447.168C312.755 442.048 313.651 437.184 314.504 432.576C315.357 427.883 316.125 423.829 316.808 420.416C317.491 416.917 318.003 414.571 318.344 413.376C316.211 413.632 314.291 413.845 312.584 414.016C310.877 414.187 309.469 414.272 308.36 414.272ZM439.909 495.68C438.032 495.68 436.453 494.955 435.173 493.504C433.978 492.053 433.381 489.664 433.381 486.336C433.381 485.227 433.509 484.032 433.765 482.752C434.021 481.387 434.49 480.021 435.173 478.656C430.906 468.075 427.322 457.792 424.421 447.808C421.52 437.824 419.045 427.371 416.997 416.448C414.266 422.08 411.664 427.925 409.189 433.984C406.8 439.957 404.538 445.803 402.405 451.52C400.272 457.237 398.352 462.571 396.645 467.52C394.938 472.469 393.445 476.736 392.165 480.32C390.8 484.587 389.434 487.445 388.069 488.896C386.704 490.432 385.296 491.2 383.845 491.2C381.882 491.2 380.389 490.731 379.365 489.792C378.426 488.853 377.957 487.189 377.957 484.8C377.957 483.008 378.426 480.235 379.365 476.48C380.304 472.725 381.584 468.373 383.205 463.424C384.912 458.475 386.832 453.269 388.965 447.808C391.098 442.347 393.36 437.013 395.749 431.808C398.224 426.603 400.698 421.909 403.173 417.728C405.648 413.461 407.994 410.091 410.213 407.616C412.517 405.056 414.608 403.776 416.485 403.776C418.448 403.776 420.112 404.16 421.477 404.928C422.928 405.696 424.506 407.701 426.213 410.944C427.322 413.163 428.602 416.405 430.053 420.672C431.504 424.853 432.954 429.589 434.405 434.88C435.856 440.085 437.264 445.461 438.629 451.008C439.994 456.469 441.189 461.547 442.213 466.24C445.626 450.453 448.613 436.629 451.173 424.768C453.733 412.821 455.696 403.477 457.061 396.736C458.512 389.995 459.28 386.453 459.365 386.112C459.877 383.893 460.432 382.528 461.029 382.016C461.626 381.504 462.48 381.248 463.589 381.248C465.125 381.248 466.618 381.888 468.069 383.168C469.605 384.363 470.373 386.027 470.373 388.16C470.373 389.184 470.117 391.531 469.605 395.2C469.178 398.869 468.496 403.477 467.557 409.024C466.704 414.485 465.594 420.587 464.229 427.328C462.864 433.984 461.285 440.939 459.493 448.192C457.701 455.36 455.696 462.485 453.477 469.568C451.344 476.565 448.997 483.179 446.437 489.408C445.498 491.797 444.389 493.419 443.109 494.272C441.914 495.211 440.848 495.68 439.909 495.68ZM528.233 488.256C526.1 488.256 523.838 487.616 521.449 486.336C519.06 485.056 516.841 482.965 514.793 480.064C512.83 477.163 511.209 473.323 509.929 468.544C508.649 463.765 508.009 457.877 508.009 450.88C508.009 445.333 508.692 439.701 510.057 433.984C511.508 428.181 513.726 422.72 516.713 417.6C519.785 412.395 523.71 407.915 528.489 404.16C533.353 400.32 539.241 397.675 546.153 396.224C549.14 395.541 552.51 394.901 556.265 394.304C560.105 393.621 563.988 393.024 567.913 392.512C571.924 391.915 575.678 391.445 579.177 391.104C582.761 390.763 585.79 390.592 588.265 390.592C592.276 390.592 595.134 391.317 596.841 392.768C598.633 394.133 599.529 395.456 599.529 396.736C599.529 397.589 599.188 398.4 598.505 399.168C597.822 399.851 596.5 400.277 594.537 400.448C593.769 400.533 592.148 400.747 589.673 401.088C587.198 401.344 584.212 401.728 580.713 402.24C577.214 402.752 573.545 403.307 569.705 403.904C565.95 404.416 562.281 404.971 558.697 405.568C555.198 406.08 552.169 406.549 549.609 406.976C542.526 408.341 536.937 410.688 532.841 414.016C528.745 417.344 525.758 421.269 523.881 425.792C522.004 430.315 520.809 434.965 520.297 439.744C523.71 438.976 527.422 438.165 531.433 437.312C535.529 436.459 539.454 435.691 543.209 435.008C546.964 434.24 550.206 433.643 552.937 433.216C555.753 432.789 557.63 432.576 558.569 432.576C560.361 432.576 561.47 432.96 561.897 433.728C562.409 434.496 562.665 435.477 562.665 436.672C562.665 438.976 558.91 441.536 551.401 444.352C543.977 447.168 533.438 449.557 519.785 451.52C519.785 454.421 519.828 457.408 519.913 460.48C520.084 463.467 520.34 466.24 520.681 468.8C521.022 471.36 521.449 473.408 521.961 474.944C522.473 476.48 523.156 477.248 524.009 477.248C525.972 477.248 528.532 476.651 531.689 475.456C534.932 474.261 538.302 472.811 541.801 471.104C545.3 469.397 548.5 467.733 551.401 466.112C554.388 464.491 556.564 463.211 557.929 462.272C559.55 461.248 561.3 460.139 563.177 458.944C565.054 457.749 566.462 457.152 567.401 457.152C568.596 457.152 569.193 457.835 569.193 459.2C569.193 459.968 568.51 461.461 567.145 463.68C565.865 465.899 563.988 468.416 561.513 471.232C559.038 473.963 556.094 476.651 552.681 479.296C549.353 481.856 545.598 483.989 541.417 485.696C537.321 487.403 532.926 488.256 528.233 488.256Z" fill="white"/>
</g>
<defs>
<clipPath id="clip0_1298_63">
<rect width="799.998" height="799.998" fill="white"/>
</clipPath>
</defs>
</svg>
