<svg width="800" height="800" viewBox="0 0 800 800" fill="none" xmlns="http://www.w3.org/2000/svg">
<g clip-path="url(#clip0_1299_88)">
<path d="M642.959 394.719V193.275C587.42 193.275 542.234 238.459 542.234 293.998C542.234 349.537 587.42 394.719 642.959 394.719Z" fill="#BD9FE9"/>
<path d="M743.684 293.998C743.684 238.459 698.5 193.275 642.959 193.275V394.719C698.5 394.719 743.684 349.536 743.684 293.998Z" fill="#AD87E4"/>
<path d="M800 575.317C800 488.724 729.553 418.276 642.959 418.276C598.015 418.276 556.263 437.232 526.939 469.474C567.923 502.626 595.745 551.435 601.2 606.725H800V575.317Z" fill="#BD9FE9"/>
<path d="M273.061 469.474C243.737 437.234 201.985 418.276 157.041 418.276C70.4486 418.276 0 488.724 0 575.317V606.725H198.798C204.255 551.435 232.077 502.626 273.061 469.474Z" fill="#BD9FE9"/>
<path d="M157.041 394.719V193.275C101.502 193.275 56.3181 238.459 56.3181 293.998C56.3181 349.537 101.502 394.719 157.041 394.719Z" fill="#BD9FE9"/>
<path d="M257.764 293.998C257.764 238.459 212.58 193.275 157.041 193.275V394.719C212.58 394.719 257.764 349.536 257.764 293.998Z" fill="#AD87E4"/>
<path d="M526.939 469.474C492.211 441.383 448.038 424.531 399.999 424.531V658.145H602.19V626.737C602.19 619.984 601.85 613.31 601.2 606.726C595.745 551.435 567.923 502.625 526.939 469.474Z" fill="#5A0FC8"/>
<path d="M525.632 267.49C525.632 198.219 469.27 141.857 399.999 141.857V393.122C469.27 393.122 525.632 336.776 525.632 267.49Z" fill="#5A0FC8"/>
<path d="M273.061 469.474C232.077 502.625 204.255 551.435 198.798 606.725C198.148 613.309 197.809 619.984 197.809 626.735V658.143H399.999V424.529C351.962 424.53 307.789 441.382 273.061 469.474Z" fill="#7B3FD3"/>
<path d="M399.999 393.122V141.857C330.728 141.857 274.366 198.219 274.366 267.49C274.366 336.776 330.728 393.122 399.999 393.122Z" fill="#7B3FD3"/>
</g>
<defs>
<clipPath id="clip0_1299_88">
<rect width="800" height="800" fill="white"/>
</clipPath>
</defs>
</svg>
