<?xml version="1.0" encoding="UTF-8" standalone="no"?>
<svg
   xmlns:dc="http://purl.org/dc/elements/1.1/"
   xmlns:cc="http://creativecommons.org/ns#"
   xmlns:rdf="http://www.w3.org/1999/02/22-rdf-syntax-ns#"
   xmlns:svg="http://www.w3.org/2000/svg"
   xmlns="http://www.w3.org/2000/svg"
   viewBox="0 0 2829.3333 2829.3333"
   height="2829.3333"
   width="2829.3333"
   xml:space="preserve"
   id="svg2"
   version="1.1"><metadata
     id="metadata8"><rdf:RDF><cc:Work
         rdf:about=""><dc:format>image/svg+xml</dc:format><dc:type
           rdf:resource="http://purl.org/dc/dcmitype/StillImage" /></cc:Work></rdf:RDF></metadata><defs
     id="defs6" /><g
     transform="matrix(1.3333333,0,0,-1.3333333,0,2829.3333)"
     id="g10"><g
       transform="scale(0.1)"
       id="g12"><path
         id="path14"
         style="fill:#ebbcac;fill-opacity:1;fill-rule:nonzero;stroke:none"
         d="m 9467.34,9980 c -266.21,419.8 -542.56,834.9 -824.6,1248.9 l 24.07,-981.9 2.58,0.3 c 259.45,-109.2 526.39,-197.7 797.95,-267.3" /><path
         id="path16"
         style="fill:#c36c77;fill-opacity:1;fill-rule:nonzero;stroke:none"
         d="m 9473.93,9978.2 c 490.13,-125 995.17,-186.2 1499.07,-186.2 529.4,0 1057.4,67.6 1565.4,199.9 l 1.7,-0.4 43.5,1774.9 c -447.2,-494.3 -1338.9,-1292.6 -1338.9,-1292.6 0,0 -988.1,-137.2 -1221.4,0 -190.16,111.9 -991.08,743.4 -1392.29,1233.3 l 11.73,-478.2 c 282.04,-414 558.39,-829.1 824.6,-1248.9 l 6.59,-1.8" /><path
         id="path18"
         style="fill:#ebbcac;fill-opacity:1;fill-rule:nonzero;stroke:none"
         d="m 9649.12,12136.5 c 27.87,-15.1 889.38,-107.8 941.48,-109.3 52,-1.6 895.6,134 931.1,138 35.5,3.9 76.1,21.7 76.1,21.7 0,0 -3.1,-76.5 -30,-93.3 -26.9,-16.7 -831.2,-93.8 -971.1,-88.5 -139.8,5.2 -945.24,55 -978.47,66.7 -33.22,11.7 -38.19,84.8 -38.19,84.8 0,0 41.22,-5.1 69.08,-20.1 z m 681.08,-322.4 c 0,0 230.8,136.1 522.3,34 178.3,-62.5 -385.2,-288.8 -522.3,-34 z m -306.9,-1340.3 c 233.3,-137.2 1221.4,0 1221.4,0 0,0 891.7,798.3 1338.9,1292.6 121.2,134 210.1,245.8 239.4,313.1 24.5,56.3 49,138.9 73,238 45.3,186.6 88.9,432.6 127.7,677.5 -23,-5.4 -46.9,-8.5 -71.5,-8.5 h -508.8 c -329.5,-146.7 -787.2,-253.4 -1310.4,-297.7 l -526.4,-155.9 -512.3,151.7 c -543.93,41.7 -1019.98,150.6 -1359.92,301.9 h -499.23 c -22.61,0 -44.63,2.5 -65.92,7 41.5,-215.2 94.8,-460.5 156.29,-674.4 33.13,-115.1 68.55,-221.2 105.88,-308.2 38.04,-88.8 108.59,-192.7 199.61,-303.8 401.21,-489.9 1202.13,-1121.4 1392.29,-1233.3" /><path
         id="path20"
         style="fill:#f0aba6;fill-opacity:1;fill-rule:nonzero;stroke:none"
         d="m 10980.7,13305.3 v 486.1 h -774.1 v -486.1 c -0.2,-175.7 -143.1,-318.6 -318.75,-318.8 H 8734.38 c 339.94,-151.3 815.99,-260.2 1359.92,-301.9 l -89.6,26.6 c 0,0 617.8,261.1 1203.8,0 l -75.5,-22.4 c 523.2,44.3 980.9,151 1310.4,297.7 h -1144 c -175.6,0.2 -318.5,143.1 -318.7,318.8" /><path
         id="path22"
         style="fill:#400b18;fill-opacity:1;fill-rule:nonzero;stroke:none"
         d="m 9618.23,12071.8 c 33.23,-11.7 838.67,-61.5 978.47,-66.7 139.9,-5.3 944.2,71.8 971.1,88.5 26.9,16.8 30,93.3 30,93.3 0,0 -40.6,-17.8 -76.1,-21.7 -35.5,-4 -879.1,-139.6 -931.1,-138 -52.1,1.5 -913.61,94.2 -941.48,109.3 -27.86,15 -69.08,20.1 -69.08,20.1 0,0 4.97,-73.1 38.19,-84.8" /><path
         id="path24"
         style="fill:#c36c77;fill-opacity:1;fill-rule:nonzero;stroke:none"
         d="m 10852.5,11848.1 c -291.5,102.1 -522.3,-34 -522.3,-34 137.1,-254.8 700.6,-28.5 522.3,34" /><path
         id="path26"
         style="fill:#c36c77;fill-opacity:1;fill-rule:nonzero;stroke:none"
         d="m 10699.1,12610.1 c 171.9,211.7 331.2,94.1 331.2,94.1 z m -521.2,94.1 c 0,0 159.2,117.6 331.2,-94.1 z m -173.2,7 89.6,-26.6 512.3,-151.7 526.4,155.9 75.5,22.4 c -586,261.1 -1203.8,0 -1203.8,0" /><path
         id="path28"
         style="fill:#400b18;fill-opacity:1;fill-rule:nonzero;stroke:none"
         d="m 10177.9,12704.2 331.2,-94.1 c -172,211.7 -331.2,94.1 -331.2,94.1" /><path
         id="path30"
         style="fill:#400b18;fill-opacity:1;fill-rule:nonzero;stroke:none"
         d="m 10699.1,12610.1 331.2,94.1 c 0,0 -159.3,117.6 -331.2,-94.1" /><path
         id="path32"
         style="fill:#eeb8ae;fill-opacity:1;fill-rule:nonzero;stroke:none"
         d="m 8020.28,13795.4 c 8.63,-6.4 17.1,-13.1 25.58,-19.9 -5.22,45.9 -10.86,98.5 -16.76,156.8 -3.41,-45.6 -6.09,-91.2 -8.82,-136.9" /><path
         id="path34"
         style="fill:#eeb8ae;fill-opacity:1;fill-rule:nonzero;stroke:none"
         d="m 7516.17,13980 c 136.61,0 273.13,-41.9 400.19,-115.6 v 42.7 l -5.06,1.7 c -68.9,96.3 -153.19,198.4 -183.2,248 -63.24,104.8 -118.73,205.3 -154,317.1 -120.83,-48.8 -238.4,-245.2 -241.46,-594.1 36.77,61.1 93.88,100.2 183.53,100.2" /><path
         id="path36"
         style="fill:#c36c77;fill-opacity:1;fill-rule:nonzero;stroke:none"
         d="m 7916.36,13305.3 v 559.1 c -127.06,73.7 -263.58,115.6 -400.19,115.6 -89.65,0 -146.76,-39.1 -183.53,-100.2 -1.18,-131.2 13.74,-283.7 50.87,-458.1 140.31,-658.9 595.99,-1136.1 942.01,-1102.6 -61.49,213.9 -114.79,459.2 -156.29,674.4 -144.12,30.6 -252.72,158.7 -252.87,311.8" /><path
         id="path38"
         style="fill:#c36c77;fill-opacity:1;fill-rule:nonzero;stroke:none"
         d="m 9590.76,14770.8 c -27.97,32.6 -50.97,65.9 -70.16,99.9 v 3 h -709.72 l -0.34,-3.7 c -108.41,-144.6 -251.35,-259.8 -425.82,-302.1 l -6.28,2.2 -0.83,6.6 c 44.24,92.2 65.18,194.6 65.33,297 h -176.33 v -3.1 c -31.02,-54.4 -61.68,-99.5 -82.24,-122.7 -36.92,-41.8 -84.33,-77.5 -136.7,-107 -17.64,-284.7 -23.54,-539.4 -25.3,-707.6 l -6.23,-6.1 v -621.9 c 0,-60.2 24.5,-114.7 64.37,-154.6 19.48,-19.5 42.48,-35.1 67.82,-46.2 -46.68,254.3 -73.72,443.4 -73.72,443.4 0,0 -12.14,80.8 -28.75,227.6 -8.48,6.8 -16.95,13.5 -25.58,19.9 2.73,45.7 5.41,91.3 8.82,136.9 4.63,61.4 9.75,122.8 15.11,184.1 9.89,113.2 22.26,212.3 57.2,319.1 11.39,34.9 150.79,278.6 148.55,284.4 33.42,-87.5 34.59,-186.9 3.31,-275.1 66.26,10.9 131.1,28.2 194.2,50.3 26.85,21.4 59.44,36.3 95.54,41.1 l 7.51,0.8 c 166.14,75.8 315.81,188.1 436.59,325.8 298.5,-155 590,-331.7 795.16,-339.7 97.5,-66.2 207.95,-111.4 320.93,-125 l 3.6,0.3 v 99.5 l -1.1,-0.3 c -199.57,37.1 -368.83,102.7 -514.94,273.2" /><path
         id="path40"
         style="fill:#eeb8ae;fill-opacity:1;fill-rule:nonzero;stroke:none"
         d="m 13282.8,13996.1 -6.5,-11.4 -5.4,-2.2 v -114.2 c 125.2,71.4 259.3,111.7 393.5,111.7 89.7,0 146.8,-39.1 183.5,-100.2 -3.4,386.2 -147,586.5 -280.1,605.5 -6.1,0.8 -12.6,0.1 -19.1,-0.4 l -3.7,-4.3 c -109.7,-130.4 -178,-334.9 -262.2,-484.5" /><path
         id="path42"
         style="fill:#c36c77;fill-opacity:1;fill-rule:nonzero;stroke:none"
         d="m 13171.1,13795.6 -6.8,-4.9 c -7.7,-13.2 -15.5,-26.2 -23.2,-39.3 l -7.7,-13 c -23.5,-160.8 -55.3,-391.1 -92.4,-632.7 24.5,11 46.9,26.1 65.8,44.9 39.8,40 64.3,94.5 64.3,154.7 v 490.3" /><path
         id="path44"
         style="fill:#c36c77;fill-opacity:1;fill-rule:nonzero;stroke:none"
         d="m 13664.4,13980 c -134.2,0 -268.3,-40.3 -393.5,-111.7 v -563 c -0.1,-151 -105.9,-277.6 -247.2,-310.3 -38.8,-244.9 -82.4,-490.9 -127.7,-677.5 340.1,5.6 766.2,471 901.1,1104.2 37.1,174.4 52,326.9 50.8,458.1 -36.7,61.1 -93.8,100.2 -183.5,100.2" /><path
         id="path46"
         style="fill:#ebbcac;fill-opacity:1;fill-rule:nonzero;stroke:none"
         d="m 10496.7,15459.2 c -95.3,-176.3 -238.1,-326.9 -310,-514 -14.5,-37.7 -24.6,-78.1 -30.5,-119.4 31.7,-49.5 50.3,-108.1 50.4,-171 v -130.1 c 27.7,-46.3 65.7,-85 116,-110.7 -6,-1.7 -12,-2.8 -18,-4.3 93.3,4.1 188,6.4 284.3,6.4 133.5,0 264.2,-4.2 391.8,-11.8 v 250.5 c 0.1,150 104.7,275.6 244.6,309.3 l -0.8,3.5 c 10.7,34.2 24.9,73 43.6,113 l 1.3,2.4 c -270,295.3 -477.5,662.3 -769.8,941 131.2,-151.6 92.4,-388.4 -2.9,-564.8" /><path
         id="path48"
         style="fill:#ebbcac;fill-opacity:1;fill-rule:nonzero;stroke:none"
         d="m 11566.5,14388.7 c 114.5,58.7 445.4,149.7 796.1,161 -176.8,15.3 -351.5,51.3 -515.4,116.6 -385,-96.9 -702.3,-187 -683,8.6 6.2,62.6 21.7,121 42.6,174.9 l -5.3,-5.1 0.8,5.1 c -21.1,-10.6 -40.8,-23.8 -57.5,-40.4 -39.9,-39.9 -64.4,-94.5 -64.4,-154.6 v -257.2 c 145.1,-11.1 285.2,-27 419.3,-47.1 21.3,13.2 43.3,26.1 66.8,38.2" /><path
         id="path50"
         style="fill:#ebbcac;fill-opacity:1;fill-rule:nonzero;stroke:none"
         d="m 9650.29,14388.7 c 20.8,-10.7 40.34,-22 59.4,-33.6 126.38,18.2 257.73,32.8 393.51,43 -112.98,13.6 -223.43,58.8 -320.93,125 -205.16,8 -496.66,184.7 -795.16,339.7 -120.78,-137.7 -270.45,-250 -436.59,-325.8 445.64,57.1 952.19,-72.6 1099.77,-148.3" /><path
         id="path52"
         style="fill:#ebbcac;fill-opacity:1;fill-rule:nonzero;stroke:none"
         d="m 8191.63,13541 c 0,188.8 164.35,363.4 442.83,506.4 -40.34,45.9 -58.07,81.9 -61,88.3 -42.09,42.8 -93.69,176.7 -117.22,242.3 -50.77,-8.6 -79.71,-15.2 -79.71,-15.2 4.29,53.7 31.18,100.5 70.94,132.3 -63.1,-22.1 -127.94,-39.4 -194.2,-50.3 31.28,88.2 30.11,187.6 -3.31,275.1 2.24,-5.8 -137.16,-249.5 -148.55,-284.4 -34.94,-106.8 -47.31,-205.9 -57.2,-319.1 -5.36,-61.3 -10.48,-122.7 -15.11,-184.1 5.9,-58.3 11.54,-110.9 16.76,-156.8 16.61,-146.8 28.75,-227.6 28.75,-227.6 0,0 27.04,-189.1 73.72,-443.4 26.69,-11.6 55.98,-18.2 86.82,-18.2 h 305.18 c -221.19,132.5 -348.7,288.1 -348.7,454.7" /><path
         id="path54"
         style="fill:#ebbcac;fill-opacity:1;fill-rule:nonzero;stroke:none"
         d="m 13117.6,13711.8 v 0 l -7.5,-12.7 -0.7,-0.2 c -4.5,-25.8 -6.4,-28.3 -5,-1.9 l -1.5,-0.6 -4.4,6.4 c 0,0.1 1.8,25.3 1.8,93.5 0,8.4 -0.1,17.5 -0.1,27.2 -13,108.3 -46.4,218.2 -72.5,319 -26.1,100.8 -45.3,217.5 -88.4,312.3 -53.8,118.3 -60.5,97.5 -195.4,90.1 -38.4,-2 -77,-3.2 -115.7,-3.9 15.2,-1.6 30.6,-2.8 45.6,-4.8 89.5,-12 159.3,-83.3 166.5,-173.4 0,0 -28.9,6.6 -79.7,15.2 -23.5,-65.5 -75.1,-199.3 -117.2,-242.2 -3.1,-6.9 -24.1,-49.8 -73.5,-102 262.5,-140.4 416.3,-310 416.3,-492.8 0,-166.6 -127.5,-322.2 -348.7,-454.7 h 314.7 c 31.7,0 61.6,7.1 88.8,19.4 37.1,241.6 68.9,471.9 92.4,632.7 -5.3,-8.9 -10.5,-17.8 -15.8,-26.6" /><path
         id="path56"
         style="fill:#c36c77;fill-opacity:1;fill-rule:nonzero;stroke:none"
         d="m 8395.39,15130.6 c -8.28,-1.9 -16.52,-3.9 -24.76,-6 -8.62,-46.4 -27.62,-99.1 -51.34,-151.1 h 117.13 c -7.47,53.8 -21.35,106.6 -41.03,157.1" /><path
         id="path58"
         style="fill:#c36c77;fill-opacity:1;fill-rule:nonzero;stroke:none"
         d="m 12579.7,15777.5 c 102.9,-191.8 255.1,-355.9 436.1,-477.1 -4.9,61.5 -10,124.6 -15.5,190.7 -157,62.1 -297.3,168.3 -420.6,286.4" /><g
         transform="scale(1.00285)"
         id="g60"><path
           id="path62"
           style="fill:#c36c77;fill-opacity:1;fill-rule:nonzero;stroke:none"
           d="m 9220.42,15393 c 0,0 2.96,0 8.31,0 4.56,0 10.84,0 18.45,-0.2 h 1.42 l 0.04,0.3 0.06,-0.3 h 1.78 c 32.32,-0.6 88.18,-3.5 153.72,-12.3 0.82,39.7 1.75,79.6 1.75,119.8 0,18.3 -0.14,36.6 -0.58,54.9 -6.85,283.8 -140.89,565.3 -361.31,744.8 21.43,-33.6 37.03,-75.9 48.2,-122.4 18.21,-76.1 24.73,-163.6 24.73,-243.3 0,-75.8 -5.88,-144.4 -13.37,-189.3 -19.96,-119.6 -44.98,-248.2 -77.57,-373.5 62.8,9.9 127.37,17.7 194.12,21.5 h 0.25" /></g><path
         id="path64"
         style="fill:#c36c77;fill-opacity:1;fill-rule:nonzero;stroke:none"
         d="m 10322.6,14414 c -50.3,25.7 -88.3,64.4 -116,110.7 v -37 l 2.5,-0.6 -2.5,0.3 v -82.5 c 32.4,1.9 65.1,3.4 98,4.8 6,1.5 12,2.6 18,4.3" /><path
         id="path66"
         style="fill:#c36c77;fill-opacity:1;fill-rule:nonzero;stroke:none"
         d="m 13109.4,13698.9 -5,-1.9 c -1.4,-26.4 0.5,-23.9 5,1.9" /><path
         id="path68"
         style="fill:#f0aba6;fill-opacity:1;fill-rule:nonzero;stroke:none"
         d="m 12986.2,13541 c 0,182.8 -153.8,352.4 -416.3,492.8 -84.2,-89.1 -250.8,-203.2 -553.8,-203.9 -213.7,-0.4 -351.7,36.4 -398.7,51.2 -239.3,40.7 -411,118.7 -411,118.7 0,0 9.3,11.5 24.9,30.4 l -39.3,19.3 c 0,0 101.4,172.6 307.7,301 -134.1,20.1 -274.2,36 -419.3,47.1 v -1092.3 c 0,-60.2 24.5,-114.7 64.4,-154.7 39.9,-39.8 94.4,-64.3 154.6,-64.3 h 1338.1 c 221.2,132.5 348.7,288.1 348.7,454.7" /><path
         id="path70"
         style="fill:#f0aba6;fill-opacity:1;fill-rule:nonzero;stroke:none"
         d="m 10304.6,14409.7 c -32.9,-1.4 -65.6,-2.9 -98,-4.8 v -513.8 h 774.1 v 513.2 c -127.6,7.6 -258.3,11.8 -391.8,11.8 -96.3,0 -191,-2.3 -284.3,-6.4" /><path
         id="path72"
         style="fill:#f0aba6;fill-opacity:1;fill-rule:nonzero;stroke:none"
         d="m 9709.69,14355.1 c 211.34,-128.9 315.11,-305.6 315.11,-305.6 l -39.26,-19.3 c 15.66,-18.9 24.86,-30.4 24.86,-30.4 0,0 -171.7,-78 -411.11,-118.7 -46.93,-14.8 -184.86,-51.6 -398.65,-51.2 -318.78,0.7 -486.52,127 -566.18,217.5 -278.48,-143 -442.83,-317.6 -442.83,-506.4 0,-166.6 127.51,-322.2 348.7,-454.7 h 1347.52 c 60.18,0 114.65,24.5 154.65,64.3 39.8,40 64.3,94.5 64.3,154.7 v 1093.1 l -3.6,-0.3 c -135.78,-10.2 -267.13,-24.8 -393.51,-43" /><path
         id="path74"
         style="fill:#ffffff;fill-opacity:1;fill-rule:nonzero;stroke:none"
         d="m 12228.6,14415.2 c 45.4,-58.8 71.8,-132.2 71.8,-211.8 0,-144.6 -88.2,-268.5 -213.7,-321.6 175.9,30.3 375.7,101.8 557.5,255.8 l -0.8,-1.8 c 42.1,42.9 93.7,176.7 117.2,242.2 -103.9,17.4 -300.2,43 -532,37.2" /><path
         id="path76"
         style="fill:#ffffff;fill-opacity:1;fill-rule:nonzero;stroke:none"
         d="m 11872.1,13862.3 c -155.9,35.4 -272.7,174.6 -272.7,341.1 0,39.4 7.1,77 19.2,112.3 l -0.4,-0.1 c -117.1,-39.2 -156.2,-55.5 -386.8,-285.4 h -0.1 c -15.6,-18.9 -24.9,-30.4 -24.9,-30.4 0,0 171.7,-78 411,-118.7 -11.7,3.8 -18,6.2 -18,6.2 0,0 110.1,-26.9 272.7,-25" /><path
         id="path78"
         style="fill:#6a352a;fill-opacity:1;fill-rule:nonzero;stroke:none"
         d="m 11950,14357.7 c 19.9,0 38.7,-4.1 56.2,-11 17.2,25.3 46.2,42 79.1,42 52.8,0 95.6,-42.8 95.6,-95.6 0,-46.5 -33.2,-85.2 -77.3,-93.8 -2.3,-83 -70,-149.8 -153.6,-149.8 -85.1,0 -154.1,69 -154.1,154.1 0,85.1 69,154.1 154.1,154.1 z m -77.9,-495.4 c 64.4,0.7 137.2,6.2 214.6,19.5 125.5,53.1 213.7,177 213.7,321.6 0,79.6 -26.4,153 -71.8,211.8 -190.1,-4.8 -403.9,-30.6 -610,-99.5 -12.1,-35.3 -19.2,-72.9 -19.2,-112.3 0,-166.5 116.8,-305.7 272.7,-341.1" /><path
         id="path80"
         style="fill:#400b18;fill-opacity:1;fill-rule:nonzero;stroke:none"
         d="m 11950,14049.5 c 83.6,0 151.3,66.8 153.6,149.8 -5.9,-1.1 -12,-1.8 -18.3,-1.8 -52.8,0 -95.6,42.8 -95.6,95.6 0,19.9 6.1,38.3 16.5,53.6 -17.5,6.9 -36.3,11 -56.2,11 -85.1,0 -154.1,-69 -154.1,-154.1 0,-85.1 69,-154.1 154.1,-154.1" /><path
         id="path82"
         style="fill:#ffffff;fill-opacity:1;fill-rule:nonzero;stroke:none"
         d="m 12085.3,14197.5 c 6.3,0 12.4,0.7 18.3,1.8 44.1,8.6 77.3,47.3 77.3,93.8 0,52.8 -42.8,95.6 -95.6,95.6 -32.9,0 -61.9,-16.7 -79.1,-42 -10.4,-15.3 -16.5,-33.7 -16.5,-53.6 0,-52.8 42.8,-95.6 95.6,-95.6" /><path
         id="path84"
         style="fill:#400b18;fill-opacity:1;fill-rule:nonzero;stroke:none"
         d="m 12362.6,14549.7 c -350.7,-11.3 -681.6,-102.3 -796.1,-161 -23.5,-12.1 -45.5,-25 -66.8,-38.2 -206.3,-128.4 -307.7,-301 -307.7,-301 l 39.3,-19.3 h 0.1 c 230.6,229.9 269.7,246.2 386.8,285.4 l 0.4,0.1 c 206.1,68.9 419.9,94.7 610,99.5 231.8,5.8 428.1,-19.8 532,-37.2 50.8,-8.6 79.7,-15.2 79.7,-15.2 -7.2,90.1 -77,161.4 -166.5,173.4 -15,2 -30.4,3.2 -45.6,4.8 -87.7,9.2 -177.2,11.6 -265.6,8.7" /><path
         id="path86"
         style="fill:#400b18;fill-opacity:1;fill-rule:nonzero;stroke:none"
         d="m 12086.7,13881.8 c -77.4,-13.3 -150.2,-18.8 -214.6,-19.5 -162.6,-1.9 -272.7,25 -272.7,25 0,0 6.3,-2.4 18,-6.2 47,-14.8 185,-51.6 398.7,-51.2 303,0.7 469.6,114.8 553.8,203.9 49.4,52.2 70.4,95.1 73.5,102 l 0.8,1.8 c -181.8,-154 -381.6,-225.5 -557.5,-255.8" /><path
         id="path88"
         style="fill:#c36c77;fill-opacity:1;fill-rule:nonzero;stroke:none"
         d="m 11164.2,14674.9 c -19.3,-195.6 298,-105.5 683,-8.6 163.9,-65.3 338.6,-101.3 515.4,-116.6 88.4,2.9 177.9,0.5 265.6,-8.7 38.7,0.7 77.3,1.9 115.7,3.9 134.9,7.4 141.6,28.2 195.4,-90.1 43.1,-94.8 62.3,-211.5 88.4,-312.3 26.1,-100.8 59.5,-210.7 72.5,-319 -0.9,139.1 -8.8,417.4 -43.4,928.1 -68.8,-14.8 -139,-23.6 -208.8,-23.6 -27.2,0 -54.4,1.3 -81.3,4.1 -144.6,14.8 -317.1,62.6 -474.6,136 l -2.7,5.6 h -117.6 c 104.6,-81.9 225.9,-142.5 355.2,-172.7 l 4.8,-6.1 -4.9,-6 c -62.2,-13.2 -124.8,-19.5 -187.3,-19.5 -220.5,0 -438.6,77.6 -630.6,199.1 l -2,5.2 h -407.6 c -30.5,0 -59.5,-6.4 -86,-17.8 l -6.6,-6.1 c -20.9,-53.9 -36.4,-112.3 -42.6,-174.9" /><path
         id="path90"
         style="fill:#c36c77;fill-opacity:1;fill-rule:nonzero;stroke:none"
         d="m 11488.1,15037.4 c -40.2,-21 -76.6,-42.7 -109.2,-63.9 h 184 c -25.6,20.6 -50.6,41.8 -74.8,63.9" /><path
         id="path92"
         style="fill:#c36c77;fill-opacity:1;fill-rule:nonzero;stroke:none"
         d="m 11981.4,15075.3 c 23.7,-34 48.9,-67 77,-97.6 l 0.7,-4.2 h 46.8 c -45.8,31.4 -87.7,65.5 -124.5,101.8" /><path
         id="path94"
         style="fill:#ffffff;fill-opacity:1;fill-rule:nonzero;stroke:none"
         d="m 9130.15,13881.8 c -125.56,53.1 -213.79,177 -213.79,321.6 0,79.6 26.5,153 71.91,211.8 -231.77,5.8 -428.11,-19.8 -532.03,-37.2 23.53,-65.6 75.13,-199.5 117.22,-242.3 l -0.82,1.9 c 181.72,-154.1 381.58,-225.6 557.51,-255.8" /><path
         id="path96"
         style="fill:#ffffff;fill-opacity:1;fill-rule:nonzero;stroke:none"
         d="m 9598.55,14315.6 -0.29,0.1 c 12.03,-35.3 19.14,-72.9 19.14,-112.3 0,-166.5 -116.78,-305.7 -272.63,-341.1 162.52,-1.9 272.63,25 272.63,25 0,0 -6.28,-2.4 -18.11,-6.2 239.41,40.7 411.11,118.7 411.11,118.7 0,0 -9.2,11.5 -24.86,30.4 h -0.09 c -230.66,229.9 -269.77,246.2 -386.9,285.4" /><path
         id="path98"
         style="fill:#6a352a;fill-opacity:1;fill-rule:nonzero;stroke:none"
         d="m 9266.81,14357.7 c 40.44,0 76.93,-15.9 104.41,-41.4 17.54,20.5 43.26,33.8 72.35,33.8 52.82,0 95.64,-42.8 95.64,-95.7 0,-52.7 -42.82,-95.6 -95.64,-95.6 -10.04,0 -19.49,2 -28.6,4.9 -17.69,-65.6 -76.97,-114.2 -148.16,-114.2 -85.06,0 -154.06,69 -154.06,154.1 0,85.1 69,154.1 154.06,154.1 z m -136.66,-475.9 c 77.37,-13.3 150.15,-18.8 214.62,-19.5 155.85,35.4 272.63,174.6 272.63,341.1 0,39.4 -7.11,77 -19.14,112.3 -206.14,68.9 -419.88,94.7 -609.99,99.5 -45.41,-58.8 -71.91,-132.2 -71.91,-211.8 0,-144.6 88.23,-268.5 213.79,-321.6" /><path
         id="path100"
         style="fill:#400b18;fill-opacity:1;fill-rule:nonzero;stroke:none"
         d="m 9266.81,14049.5 c 71.19,0 130.47,48.6 148.16,114.2 -38.73,12.2 -66.99,48 -66.99,90.7 0,23.8 8.96,45.2 23.24,61.9 -27.48,25.5 -63.97,41.4 -104.41,41.4 -85.06,0 -154.06,-69 -154.06,-154.1 0,-85.1 69,-154.1 154.06,-154.1" /><path
         id="path102"
         style="fill:#ffffff;fill-opacity:1;fill-rule:nonzero;stroke:none"
         d="m 9414.97,14163.7 c 9.11,-2.9 18.56,-4.9 28.6,-4.9 52.82,0 95.64,42.9 95.64,95.6 0,52.9 -42.82,95.7 -95.64,95.7 -29.09,0 -54.81,-13.3 -72.35,-33.8 -14.28,-16.7 -23.24,-38.1 -23.24,-61.9 0,-42.7 28.26,-78.5 66.99,-90.7" /><path
         id="path104"
         style="fill:#400b18;fill-opacity:1;fill-rule:nonzero;stroke:none"
         d="m 8376.53,14362.8 c 0,0 28.94,6.6 79.71,15.2 103.92,17.4 300.26,43 532.03,37.2 190.11,-4.8 403.85,-30.6 609.99,-99.5 l 0.29,-0.1 c 117.13,-39.2 156.24,-55.5 386.9,-285.4 h 0.09 l 39.26,19.3 c 0,0 -103.77,176.7 -315.11,305.6 -19.06,11.6 -38.6,22.9 -59.4,33.6 -147.58,75.7 -654.13,205.4 -1099.77,148.3 l -7.51,-0.8 c -36.1,-4.8 -68.69,-19.7 -95.54,-41.1 -39.76,-31.8 -66.65,-78.6 -70.94,-132.3" /><path
         id="path106"
         style="fill:#400b18;fill-opacity:1;fill-rule:nonzero;stroke:none"
         d="m 9344.77,13862.3 c -64.47,0.7 -137.25,6.2 -214.62,19.5 -175.93,30.2 -375.79,101.7 -557.51,255.8 l 0.82,-1.9 c 2.93,-6.4 20.66,-42.4 61,-88.3 79.66,-90.5 247.4,-216.8 566.18,-217.5 213.79,-0.4 351.72,36.4 398.65,51.2 11.83,3.8 18.11,6.2 18.11,6.2 0,0 -110.11,-26.9 -272.63,-25" /><path
         id="path108"
         style="fill:#c36c77;fill-opacity:1;fill-rule:nonzero;stroke:none"
         d="m 9437.58,15142.5 c -36.01,7.5 -72.65,13.5 -110.6,16.6 -93.4,7.6 -210.53,22 -346.65,27.2 -6.81,-18.2 -13.64,-36.4 -20.99,-54 -22.66,-54.2 -49.6,-107.5 -79.96,-158.8 h 594.89 c -19.1,55.2 -30.31,111.6 -36.69,169" /><path
         id="path110"
         style="fill:#c36c77;fill-opacity:1;fill-rule:nonzero;stroke:none"
         d="m 9963.38,14858.4 c -0.25,-7.2 -0.34,-14.4 -0.34,-21.6 0,-18.6 0.72,-37.3 2.77,-56 10.48,-96.5 63.29,-192 140.99,-245.5 v 119.5 c 0,60.1 -24.5,114.7 -64.3,154.6 -22.2,22.1 -49.45,38.1 -79.12,49" /><g
         transform="scale(1.01689)"
         id="g112"><path
           id="path114"
           style="fill:#c36c77;fill-opacity:1;fill-rule:nonzero;stroke:none"
           d="m 9828.07,14706.1 c 66.11,-23.6 122.16,-68.3 159.43,-126.5 5.81,40.5 15.7,80.2 30,117.4 70.7,184 211.1,332 304.8,505.4 93.8,173.5 131.9,406.4 2.9,555.4 287.4,-274 491.5,-635 757,-925.4 17.4,36.9 39.1,74.4 65,110.2 -232.2,266.2 -390.4,572.8 -587.8,848.4 -103.9,145.1 -219.5,281.2 -361.9,398.7 -47.3,38.9 -97.7,75.8 -151.4,110.3 54.8,-60.2 87.7,-142.1 104.8,-222.4 11.8,-55.6 16.8,-112.2 16.8,-169.1 -0.1,-149.2 -33.6,-300.3 -63.1,-441.7 -51.5,-245.4 -229.79,-472.7 -288.14,-718.4 4.75,-13.4 8.93,-26.2 12.62,-38.4 l -1.01,-3.9" /></g><g
         transform="scale(1.18872)"
         id="g116"><path
           id="path118"
           style="fill:#4a1e15;fill-opacity:1;fill-rule:nonzero;stroke:none"
           d="m 15915,2409.24 c -128.6,879.01 -386.4,1678.02 -533.6,1908.52 -278.5,435.85 -725.1,652.64 -871.6,714.81 l 5.3,60.57 -2.2,4.79 -2248.3,1507.76 v 0 l -1725.8,1157.46 15.6,637.24 -1.9,4.21 -3.2,0.67 -1.5,0.34 c -427.3,-111.29 -871.49,-168.16 -1316.85,-168.16 -423.9,0 -848.76,51.48 -1261.08,156.64 l 3.11,-2.28 c 484.62,-764.6 928.88,-1547.63 1292.63,-2378.94 l -0.42,-4.97 -4.2,-2.44 c -51.49,-1.43 -102.97,-2.1 -154.45,-2.1 -1134.95,0 -2267.73,340.36 -3363,701.26 l -3.56,4.29 2.29,5.05 -395.89,-265.5 -402.49,-269.87 4.39,0.59 3.37,-2.94 C 5671.93,4481.89 6470.84,2834.73 7455.86,1282.56 l 0.16,-5.3 -4.59,-2.69 h 8843.37 l 3.7,1.51 1.5,3.79 c -10,454.27 -375,1111.19 -385,1129.37" /></g><path
         id="path120"
         style="fill:#6a2616;fill-opacity:1;fill-rule:nonzero;stroke:none"
         d="m 6827.45,7969.9 c 1301.96,-429 2648.52,-833.6 3997.65,-833.6 61.2,0 122.4,0.8 183.6,2.5 l 5,2.9 0.5,5.9 c -432.4,988.2 -960.5,1919 -1536.57,2827.9 l -3.7,2.7 -6.59,1.8 c -271.56,69.6 -538.5,158.1 -797.95,267.3 l -2.58,-0.3 -3.36,-0.3 -2.73,-5.3 24.8,-1013.2 -1859.58,-1247.2 -2.73,-6 4.24,-5.1" /><path
         id="path122"
         style="fill:#6a2616;fill-opacity:1;fill-rule:nonzero;stroke:none"
         d="M 8862.91,1524.6 C 7692,3369.7 6742.33,5327.7 5886.11,7341.8 l -4,3.5 -5.22,-0.7 -1915.31,-1284.6 -2.78,-5.7 6.34,-72 c -173.99,-73.9 -704.94,-331.6 -1036.16,-849.7 -174.9,-274 -481.4,-1223.8 -634.24,-2268.7 -11.89,-21.6 -445.8,-802.5 -457.69,-1342.5 l 1.81,-4.5 4.43,-1.8 h 7014.36 l 5.45,3.2 -0.19,6.3" /><path
         id="path124"
         style="fill:#b25f30;fill-opacity:1;fill-rule:nonzero;stroke:none"
         d="m 9437.58,15142.5 -0.59,4.7 c -5.8,54 -7.5,108.9 -7.5,164.5 0,35 0.69,70.3 1.46,105.8 l 0.1,6.9 c -65.73,8.9 -121.75,11.7 -154.16,12.4 h -1.79 -0.1 -1.42 c -7.64,0.1 -13.93,0.2 -18.51,0.2 -5.36,0 -8.33,-0.1 -8.33,-0.1 h -0.25 c -66.94,-3.7 -131.69,-11.5 -194.68,-21.6 l -2.25,-9 c -19.48,-74.1 -41.8,-146.7 -67.57,-215.7 l -1.66,-4.3 c 136.12,-5.2 253.25,-19.6 346.65,-27.2 37.95,-3.1 74.59,-9.1 110.6,-16.6" /><path
         id="path126"
         style="fill:#b25f30;fill-opacity:1;fill-rule:nonzero;stroke:none"
         d="m 8393.68,15135.7 c -5.26,13.2 -11.7,26.1 -18.08,39 l 0.1,-2.8 c 0,-13.5 -1.51,-28 -4.14,-43.2 l -0.93,-4.1 c 8.24,2.1 16.48,4.1 24.76,6 l -1.71,5.1" /><path
         id="path128"
         style="fill:#b25f30;fill-opacity:1;fill-rule:nonzero;stroke:none"
         d="m 9994.07,14954.4 1.03,4 c -3.75,12.4 -8,25.5 -12.83,39.1 l -0.39,-1.5 c -2.72,-11.6 -5.54,-23 -7.69,-34.4 l -0.34,-0.5 c 5.11,-1.4 10.28,-2.8 15.25,-4.5 l 4.97,-2.2" /><path
         id="path130"
         style="fill:#b25f30;fill-opacity:1;fill-rule:nonzero;stroke:none"
         d="m 7911.3,13908.8 5.06,-1.7 v 676.8 c -59.05,-18.8 -119.47,-30.1 -175.93,-32 l -5.6,3.1 0.14,6.5 c 53.35,82.7 76.93,179.9 82,279.6 0.73,14.2 1.07,28.5 1.07,42.8 0,43.2 -3.12,86.4 -8.48,128.8 -23.04,183 -69.72,355.6 -95.78,533.9 -199.42,-209.2 -434.84,-369.2 -729.79,-391.8 l -5.17,2 -1.46,5.4 c -27.38,-139.2 -88.57,-263.8 -212.52,-360.4 l -2.39,-4.9 2.34,-4.9 c 157.61,-127 360,-195.2 562.05,-195.2 72.1,0 144.21,8.8 214.27,26.7 6.53,-52.5 17.88,-101.8 32.75,-148.9 l 0.24,-0.7 c 35.27,-111.8 90.76,-212.3 154,-317.1 30.01,-49.6 114.3,-151.7 183.2,-248" /><path
         id="path132"
         style="fill:#b25f30;fill-opacity:1;fill-rule:nonzero;stroke:none"
         d="m 8047.67,14640.9 -3.03,-1.8 c -8.57,-4.7 -17.2,-8.9 -25.72,-13.1 l -2.78,0.1 v -698.9 l 6.23,6.1 c 1.76,168.2 7.66,422.9 25.3,707.6" /><g
         transform="scale(1.20931)"
         id="g134"><path
           id="path136"
           style="fill:#f9ad60;fill-opacity:1;fill-rule:nonzero;stroke:none"
           d="m 5775.19,12531.7 c 243.9,18.7 438.57,151.1 603.47,324.1 21.55,-147.5 60.15,-290.2 79.2,-441.5 4.44,-35.1 7.02,-70.9 7.02,-106.5 0,-11.9 -0.28,-23.7 -0.89,-35.4 -4.19,-82.5 -23.69,-162.8 -67.81,-231.2 l -0.11,-5.4 4.63,-2.6 c 46.69,1.6 96.65,10.9 145.48,26.5 v 58.6 c 0.16,145.2 118.37,263.4 263.62,263.6 h 69.57 c 19.62,42.9 35.33,86.5 42.45,124.9 l 0.78,3.4 c 2.17,12.6 3.42,24.6 3.42,35.7 l -0.08,2.3 c 5.27,-10.7 10.6,-21.3 14.94,-32.2 l 1.42,-4.2 c 16.27,-41.8 27.75,-85.4 33.93,-129.9 h 366.29 c 25.11,42.4 47.38,86.5 66.12,131.3 6.08,14.5 11.72,29.6 17.36,44.6 l 1.37,3.5 c 21.31,57.1 39.77,117.2 55.87,178.4 l 1.87,7.5 c 27.03,104 47.77,210.6 64.33,309.8 6.21,37.2 11.09,94.1 11.09,157 0,66.1 -5.41,138.7 -20.52,201.7 -9.26,38.6 -22.19,73.7 -39.96,101.5 182.79,-148.8 293.94,-382.3 299.62,-617.6 0.37,-15.2 0.48,-30.4 0.48,-45.6 0,-33.3 -0.77,-66.4 -1.44,-99.3 l -0.09,-5.7 c -0.64,-29.3 -1.2,-58.5 -1.2,-87.5 0,-45.9 1.4,-91.3 6.2,-136 l 0.49,-3.9 c 5.27,-47.5 14.54,-94.1 30.33,-139.7 h 342 c 22.93,-0.1 45.09,-3.3 66.33,-8.9 l 4.79,-1.4 0.28,0.4 c 1.77,9.5 4.11,18.9 6.35,28.5 l 0.33,1.2 c 49.06,206.6 198.98,397.8 242.31,604.1 24.81,118.9 52.92,246 53,371.4 0,47.8 -4.13,95.5 -14.05,142.2 -14.39,67.6 -42.09,136.4 -88.15,187 45.15,-29 87.49,-60 127.26,-92.7 l -1.73,5.4 4.38,3.7 c 46.64,5 100.63,15.4 151.74,15.4 34.15,0 67.14,-4.6 95.84,-19 l 1.15,-0.8 c 397.84,-358 796.24,-638.7 1268.13,-880.2 -374.81,297.3 -457.83,810.5 -616.35,1245.9 l 1.16,5.4 5.29,1.3 c 241.96,-80.8 525.8,-122.5 732.6,-359.2 -29.1,164.1 -81.2,323.2 -154.3,473.2 l -0.6,0.6 c -143.57,294.8 -368.41,554.1 -664.61,742.5 l -2.15,5.8 4.88,3.7 c 243.11,-0.1 566.44,0 775.48,-157.7 -85.2,365.5 -330.1,727 -694.03,807.6 l -3.97,6 5.79,4.2 c 50.03,-7.2 102.71,-9.3 156.87,-9.3 82.69,0 169.02,5 254.85,5 11.25,0 22.5,-0.1 33.74,-0.3 161.95,-2.8 321.15,-29 449.75,-147.6 -85.2,251.7 -209,536.9 -421.3,730 l -0.83,6.7 6.37,1.9 c -322.33,141.7 -698.99,196.1 -1059.2,196.1 -148.93,0 -294.96,-9.3 -433.22,-25.6 -291.15,-34.4 -581.02,-113 -839.15,-255 -118.17,-65 -232.31,-128.5 -350.1,-192.5 -113.38,-61.6 -212.69,-148.1 -292.86,-248.8 -87.79,-110.3 -153.02,-236.9 -199.15,-370.1 4.76,36.2 7.45,72.5 7.45,108.8 0,90.6 -14.34,181.1 -41.06,269.1 -22.07,73.4 -52.37,120.3 -121.86,160.4 -24.33,14 -64.14,20 -101.97,26.3 -37.68,6.1 -73.56,13.2 -86.54,25.1 l -7.29,-0.4 0.44,-7.3 c 48.95,-43.4 70.9,-109.4 70.9,-176.5 0,-27.8 -3.79,-55.8 -10.9,-82.3 -24.42,-90.6 -81.64,-169.1 -138.97,-245.1 -57.28,-75.9 -116.95,-153.8 -145.8,-245.8 -11.8,-37.6 -17.44,-76.7 -17.44,-115.9 0.04,-132.5 64.66,-265.1 173.55,-341.9 -37.25,-13.8 -76.54,-20.6 -116.11,-20.6 -136.49,-0.1 -274.71,77.8 -334.02,201.6 l -5.44,2.9 -4.31,-4.5 c -4.56,-34.7 -7.25,-69.9 -7.25,-105.2 0,-71.4 11,-142.6 39.72,-208 41.71,-95 125.5,-175.1 227.67,-194.9 -98.02,-102.5 -184.64,-234.1 -249.74,-359.2 -91.86,-176.6 -148.87,-371.5 -165.63,-569.9 -2.13,-25.7 -3.06,-52.2 -3.06,-79.3 0,-163.7 33.6,-350.8 33.6,-526.5 0,-62.3 -4.23,-123.2 -15.6,-181 l 1.21,-4.5 4.28,-1.7" /></g><g
         transform="scale(1.19476)"
         id="g138"><path
           id="path140"
           style="fill:#b25f30;fill-opacity:1;fill-rule:nonzero;stroke:none"
           d="m 10078.8,16291.4 c 214.8,-195.6 340.1,-484.2 426.4,-739 -130.1,120.1 -291.3,146.6 -455.2,149.5 -11.4,0.2 -22.8,0.3 -34.2,0.3 -86.85,-0.1 -174.23,-5.2 -257.93,-5.2 -54.82,0 -108.14,2.2 -158.78,9.4 l -5.86,-4.2 4.02,-6 c 368.36,-81.7 616.25,-447.5 702.45,-817.4 -211.6,159.6 -538.82,159.5 -784.89,159.6 l -4.94,-3.8 2.18,-5.8 c 299.8,-190.8 527.35,-453.2 672.65,-751.7 l 0.7,-0.5 c 74,-151.9 126.6,-312.9 156.1,-478.9 -209.3,239.5 -496.58,281.7 -741.49,363.5 l -5.35,-1.3 -1.18,-5.4 c 160.46,-440.8 244.49,-960.3 623.82,-1261.2 -477.59,244.4 -880.85,528.6 -1283.53,891 l -1.17,0.8 c -29.04,14.5 -62.44,19.2 -97.01,19.2 -51.72,0 -106.38,-10.5 -153.59,-15.6 l -4.43,-3.7 1.75,-5.5 c 121.2,-100.1 219.63,-215.9 308.1,-339.4 167.98,-234.5 302.65,-495.5 500.27,-722 -22.1,-30.5 -40.51,-62.5 -55.33,-93.8 l -1.08,-2 c -15.66,-33.5 -27.54,-65.9 -36.5,-94.6 l 0.67,-2.9 4.35,1.3 c 18.58,4.2 37.84,6.5 57.67,6.6 h 66.55 c 27.28,17.7 57.75,35.8 91.39,53.4 20.26,-18.4 41.18,-36.2 62.61,-53.4 h 415.28 l -0.6,3.5 c -23.5,25.6 -44.6,53.2 -64.4,81.7 30.8,-30.4 65.9,-58.9 104.2,-85.2 h 708.3 c 98.4,-0.1 184.1,-54 230.4,-133.4 l 0.8,0.8 c 10.2,3.8 20.4,7.5 30.2,11.5 55.7,22.7 116.2,46.4 160.7,86.4 0.7,0.5 4.7,5.1 9.8,11.4 5.2,6.4 11.9,14.9 19.1,24.4 14.3,19 30.8,42 41.4,60 7,11.4 11.2,21.4 11.3,24.8 -159.6,23.8 -312.4,84.3 -447.2,172.7 l -2.3,3.9 -0.9,11.1 c -151.5,101.4 -278.9,238.7 -365,399.3 103.2,-98.8 220.6,-187.8 352,-239.7 l -0.2,3.1 2,4.6 5.1,0.7 c 46,-17.9 93.6,-31.4 142.9,-38.8 25.3,-3.8 51,-5.7 76.7,-5.7 177.2,-0.1 358.1,89.1 425.4,249.1 -113.1,41.4 -220,97.1 -318.6,164.9 l -1.8,2.3 c -17,40.3 -39.5,77 -80.6,104.5 l -2,6.5 6.1,2.9 c 161,-40.3 325.1,-42.1 450.7,-196.5 -43.7,369.1 -168.5,736.6 -414.2,1023.2 l -0.7,5.6 4.7,3 c 204.9,-0.1 370.2,81.1 576.3,123.5 -124.6,206.4 -289.4,413.1 -413.8,620.2 l -0.3,4.5 3.2,3.2 c 51.4,17 185.8,82.5 259.3,82.8 9,0 17.2,-1.1 24.5,-3.5 v 0 l 1,-0.2 0.5,-0.2 7.4,-3.8 c 8.6,5.9 15.8,12 18.9,19.7 l 1.3,7.4 c -0.2,13.7 -9.8,30.8 -23.5,50.7 -20.7,29.6 -51.8,64.1 -79.2,91.4 -13.7,13.6 -26.4,25.4 -36.6,33.9 -5.1,4.3 -9.4,7.7 -13.1,10.1 l -1.2,0.7 c 112.3,94.3 190.7,228.1 217.1,372.4 l -2.2,5.3 h -5.8 c -97.6,-63 -211,-90 -327.3,-90 -130.8,0 -265.3,34.2 -384.6,89.2 -225.6,104.1 -414.4,272.9 -617,419.1 -91.6,66.2 -191.5,121.8 -297.1,168.3 l -6.5,-1.9 0.9,-6.7" /></g><path
         id="path142"
         style="fill:#973b25;fill-opacity:1;fill-rule:nonzero;stroke:none"
         d="m 13063.9,14753 -7.1,-1.4 c 34.6,-510.7 42.5,-789 43.4,-928.1 0,-9.7 0.1,-18.8 0.1,-27.2 0,-68.2 -1.8,-93.4 -1.8,-93.5 l 4.4,-6.4 1.5,0.6 5,1.9 0.7,0.2 7.5,12.7 v 0 c 5.3,8.8 10.5,17.7 15.8,26.6 l 7.7,13 c 7.7,13.1 15.5,26.1 23.2,39.3 l 6.8,4.9 v 859.2 c 0,43.2 -12.9,83.2 -34.8,117.3 l -1.1,-1.1 c -23.6,-6.7 -47.3,-12.7 -71.3,-18" /><g
         transform="scale(1.10896)"
         id="g144"><path
           id="path146"
           style="fill:#973b25;fill-opacity:1;fill-rule:nonzero;stroke:none"
           d="m 12526.3,16296.1 -1.1,0.2 v -0.1 c -7.8,2.6 -16.6,3.8 -26.4,3.8 -79.1,-0.2 -223.9,-70.9 -279.3,-89.2 l -3.5,-3.4 0.4,-4.8 c 134,-223.2 311.6,-445.9 445.8,-668.2 -222.1,-45.7 -400.2,-133.2 -620.9,-133.1 l -5.1,-3.3 0.8,-6 c 264.7,-308.8 399.2,-704.7 446.2,-1102.3 -135.2,166.4 -312.1,168.2 -485.5,211.7 l -6.6,-3.2 2.1,-7 c 44.4,-29.6 68.5,-69.1 86.9,-112.6 l 1.9,-2.4 c 106.3,-73 221.4,-133.1 343.3,-177.7 -72.5,-172.4 -267.4,-268.4 -458.3,-268.4 -27.7,0 -55.4,2.1 -82.6,6.2 -53.1,8 -104.4,22.5 -154,41.8 l -5.5,-0.7 -2.2,-5 0.3,-3.4 c 4.9,-59.6 9.5,-116.5 13.9,-171.9 l 1,-11.9 2.6,-4.3 c 145.1,-95.2 309.8,-160.4 481.7,-186.1 -0.1,-3.6 -4.6,-14.3 -12.1,-26.6 -11.5,-19.4 -29.2,-44.2 -44.6,-64.7 -7.8,-10.2 -15,-19.3 -20.6,-26.3 -5.5,-6.8 -9.8,-11.7 -10.6,-12.3 -47.9,-43 -113.1,-68.5 -173.2,-93 -10.5,-4.4 -21.5,-8.3 -32.4,-12.4 l -0.9,-0.9 2.8,-4.4 c 23,-41.3 36.3,-88.8 36.4,-139.3 v -606.2 l 4.8,2 5.9,10.2 c 75.9,134.9 137.5,319.3 236.4,437 l 3.4,3.8 c 7.8,9.3 15.4,18.8 23.5,26.8 138.3,137.1 332,233.6 479.2,370.7 77.1,71.9 150.9,147.4 220.8,226.3 15.2,17.2 47.9,67.3 82,114.2 17,23.5 34.2,46 49.2,62.9 14.8,16.8 28.6,27.7 34.4,28.1 l 3.7,2.1 1.1,4.2 -2.3,3.7 -4.1,1.1 c -58.5,-8.3 -117.7,-12.5 -176.9,-12.5 -70.2,0 -140.4,6.2 -209.7,17.9 255.3,49.8 482.9,226.4 592.3,462.7 v 4.8 l -3.8,3 c -213.4,49.5 -346.9,272.1 -387,489.7 -40.3,217.6 -12.5,443.3 -36.8,665.3 -0.9,8.2 -1.8,16.5 -2.8,24.8 -23.1,185.9 -80.1,406.8 -194.4,556.8 -14,18.3 -44.8,60.3 -76.3,99.2 -15.8,19.5 -31.7,38.2 -45.9,52.9 -10.9,11.1 -20.3,20 -28.8,25.3 l -8,4.2 -0.6,0.2" /></g><path
         id="path148"
         style="fill:#f9ad60;fill-opacity:1;fill-rule:nonzero;stroke:none"
         d="m 8044.64,14639.1 3.03,1.8 c 52.37,29.5 99.78,65.2 136.7,107 20.56,23.2 51.22,68.3 82.24,122.7 v 3.1 h -31.46 c -60.18,0 -114.69,-24.5 -154.64,-64.3 -39.87,-40 -64.37,-94.5 -64.37,-154.6 v -28.7 l 2.78,-0.1 c 8.52,4.2 17.15,8.4 25.72,13.1" /><path
         id="path150"
         style="fill:#f9ad60;fill-opacity:1;fill-rule:nonzero;stroke:none"
         d="m 8378.44,14570.1 6.28,-2.2 c 174.47,42.3 317.41,157.5 425.82,302.1 l 0.34,3.7 h -367.94 c -0.15,-102.4 -21.09,-204.8 -65.33,-297 l 0.83,-6.6" /><path
         id="path152"
         style="fill:#f9ad60;fill-opacity:1;fill-rule:nonzero;stroke:none"
         d="m 9965.81,14780.8 c -2.05,18.7 -2.77,37.4 -2.77,56 0,7.2 0.09,14.4 0.34,21.6 l -6.19,2.9 c -21.93,7.5 -44.97,12.4 -69.34,12.4 H 9520.6 v -3 c 19.19,-34 42.19,-67.3 70.16,-99.9 146.11,-170.5 315.37,-236.1 514.94,-273.2 l 1.1,0.3 v 37.4 c -77.7,53.5 -130.51,149 -140.99,245.5" /><path
         id="path154"
         style="fill:#b25f30;fill-opacity:1;fill-rule:nonzero;stroke:none"
         d="m 12339.6,14669.4 c 62.5,0 125.1,6.3 187.3,19.5 l 4.9,6 -4.8,6.1 c -129.3,30.2 -250.6,90.8 -355.2,172.7 H 11707 l 2,-5.2 c 192,-121.5 410.1,-199.1 630.6,-199.1" /><path
         id="path156"
         style="fill:#b25f30;fill-opacity:1;fill-rule:nonzero;stroke:none"
         d="m 12766.7,14732.1 c 26.9,-2.8 54.1,-4.1 81.3,-4.1 69.8,0 140,8.8 208.8,23.6 l 7.1,1.4 c 24,5.3 47.7,11.3 71.3,18 l 1.1,1.1 -2.8,4.9 c -7.9,11.6 -16.8,22.4 -26.7,32.4 -39.9,39.8 -94.5,64.3 -154.6,64.3 h -662.8 l 2.7,-5.6 c 157.5,-73.4 330,-121.2 474.6,-136" /><path
         id="path158"
         style="fill:#260c13;fill-opacity:1;fill-rule:nonzero;stroke:none"
         d="m 13041,13105.7 c -27.2,-12.3 -57.1,-19.4 -88.8,-19.4 h -1652.8 c -60.2,0 -114.7,24.5 -154.6,64.3 -39.9,40 -64.4,94.5 -64.4,154.7 v 1349.5 c 0,60.1 24.5,114.7 64.4,154.6 16.7,16.6 36.4,29.8 57.5,40.4 l 11.1,6.1 c 26.5,11.4 55.5,17.8 86,17.8 h 1652.8 c 60.1,0 114.7,-24.5 154.6,-64.3 9.9,-10 18.8,-20.8 26.7,-32.4 l 2.8,-4.9 c 21.9,-34.1 34.8,-74.1 34.8,-117.3 v -1349.5 c 0,-60.2 -24.5,-114.7 -64.3,-154.7 -18.9,-18.8 -41.3,-33.9 -65.8,-44.9 z m -2934.2,199.6 c 0,-60.2 -24.5,-114.7 -64.3,-154.7 -40,-39.8 -94.47,-64.3 -154.65,-64.3 h -1652.7 c -30.84,0 -60.13,6.6 -86.82,18.2 -25.34,11.1 -48.34,26.7 -67.82,46.2 -39.87,39.9 -64.37,94.4 -64.37,154.6 v 1349.5 c 0,60.1 24.5,114.6 64.37,154.6 39.95,39.8 94.46,64.3 154.64,64.3 h 1652.7 c 24.37,0 47.41,-4.9 69.34,-12.4 l 6.19,-2.9 c 29.67,-10.9 56.92,-26.9 79.12,-49 39.8,-39.9 64.3,-94.5 64.3,-154.6 z m 3164.1,0 v 1349.5 c -0.1,56 -14.8,108.7 -40.3,154.5 l -3.2,4.8 c -55.3,95 -157.7,159.3 -275.2,159.4 h -1652.8 c -23.7,0 -46.7,-2.8 -68.9,-7.8 l -5.2,-1.6 c -139.9,-33.7 -244.5,-159.3 -244.6,-309.3 v -763.7 h -774.1 v 763.7 c -0.1,62.9 -18.7,121.5 -50.4,171 -37.9,59.2 -94.9,104.7 -162.13,128.6 l -4.97,2.2 c -4.97,1.7 -10.14,3.1 -15.25,4.5 l -5.79,1.7 c -25.69,6.7 -52.48,10.7 -80.21,10.7 h -1652.7 c -175.65,-0.2 -318.6,-143.1 -318.79,-318.7 v -1349.5 c 0.15,-153.1 108.75,-281.2 252.87,-311.8 21.29,-4.5 43.31,-7 65.92,-7 h 1652.7 c 175.65,0.2 318.55,143.1 318.75,318.8 v 486.1 h 774.1 v -486.1 c 0.2,-175.7 143.1,-318.6 318.7,-318.8 h 1652.8 c 24.6,0 48.5,3.1 71.5,8.5 141.3,32.7 247.1,159.3 247.2,310.3" /></g></g></svg>