<?xml version="1.0" encoding="utf-8"?>
<!-- Generator: Adobe Illustrator 27.5.0, SVG Export Plug-In . SVG Version: 6.00 Build 0)  -->
<svg version="1.1" xmlns="http://www.w3.org/2000/svg" xmlns:xlink="http://www.w3.org/1999/xlink" x="0px" y="0px"
	 viewBox="0 0 325.185 400" style="enable-background:new 0 0 325.185 400;" xml:space="preserve">
<g id="Layer_1">
</g>
<g id="Layer_2">
	<g>
		<g>
			<g>
				<path style="fill:#3A3F4F;" d="M314.638,390c0.635-1.04,1.074-2.164,1.304-3.377c5.004-26.452-8.579-49.687-6.792-67.917
					c1.787-18.23,6.466-51.981-11.601-83.005c-18.068-31.024-29.149-65.698-38.8-107.878c-9.651-42.18-56.479-88.65-104.021-88.65
					c-47.542,0-72.564,38.606-79.714,86.863c0,0-55.406,41.823-55.049,78.284c0.358,36.461,35.746,72.564,25.38,87.935
					c-10.366,15.371-35.389,35.031-36.818,67.56C7.953,372.871,7.15,382.933,12.959,390H314.638z"/>
				<path style="opacity:0.45;fill:#3A3F4F;" d="M314.638,390c0.635-1.04,1.074-2.164,1.304-3.377
					c5.004-26.452-8.579-49.687-6.792-67.917c1.787-18.23,6.466-51.981-11.601-83.005c-18.068-31.024-29.149-65.698-38.8-107.878
					c-9.651-42.18-56.479-88.65-104.021-88.65c-47.542,0-72.564,38.606-79.714,86.863c0,0-55.406,41.823-55.049,78.284
					c0.358,36.461,35.746,72.564,25.38,87.935c-10.366,15.371-35.389,35.031-36.818,67.56C7.953,372.871,7.15,382.933,12.959,390
					H314.638z"/>
				<path style="opacity:0.45;fill:#3A3F4F;" d="M299.186,390c-0.162-1.497-0.327-2.99-0.496-4.472
					c-0.772-6.773-1.756-13.518-2.596-20.283c-1.05-8.456-2.255-16.911-5.043-25.001c-2.85-8.272-7.425-15.962-13.991-21.822
					c-6.636-5.923-14.843-9.671-22.986-13.031c-7.535-3.109-15.317-5.835-22.214-10.256c-5.62-3.602-10.688-8.116-14.595-13.549
					c-7.075-9.836-9.557-22.12-7.25-33.978c2.589-13.306,10.496-24.616,20.311-33.669c11.801-10.885,21.177-24.69,25.901-40.086
					c4.01-13.071,4.515-26.656,3.576-40.205c-0.043-0.626-0.093-1.252-0.142-1.878c-0.306-1.309-0.61-2.625-0.913-3.948
					c-9.651-42.18-56.479-88.65-104.021-88.65c-47.542,0-72.564,38.606-79.714,86.863c0,0-5.216,3.938-12.436,10.449
					c-0.752,11.035-0.102,22.189,1.991,33.125c1.872,9.778,5.426,19.363,11.782,27.14c5.442,6.658,12.186,12.167,18.569,17.875
					c5.286,4.727,10.337,9.811,13.468,16.264c3.63,7.48,4.331,15.763,4.278,23.962c-0.099,15.352-2.84,32.908-15.612,43.063
					c-6.407,5.094-14.665,7.387-22.363,9.764c-7.848,2.423-15.865,4.822-22.707,9.519c-16.271,11.169-21.512,32.532-21.845,51.173
					c-0.129,7.24,0.364,14.457,1.281,21.631H299.186z"/>
			</g>
			<g>
				<g>
					<path style="fill:#F39860;" d="M285.262,390c-6.921-40.356-21.059-57.601-64.757-77.117
						c-48.92-21.848-36.571-95.94-36.571-95.94H134.46c0,0,12.349,74.092-36.571,95.94C54.191,332.399,40.053,349.644,33.132,390
						H285.262z"/>
				</g>
				<path style="fill:#F39860;" d="M158.11,252.849c9.47-0.941,17.623-3.665,24.646-7.69c-0.86-15.986,1.178-28.215,1.178-28.215
					H134.46c0,0,2.138,12.83,1.11,29.386c6.526,3.383,13.981,5.672,22.503,6.519H158.11z"/>
			</g>
			<g>
				<path style="fill:#BE1E2D;" d="M289.416,390c-2.35-22.479-7.875-60.494-18.845-68.199
					c-15.786-11.088-42.848-9.208-46.794-13.343c-3.947-4.134-6.173-3.022-6.173-3.022c-15.265,36.94-58.311,39.383-58.311,39.383
					h-0.192c0,0-43.046-2.442-58.311-39.383c0,0-2.227-1.113-6.173,3.022c-3.946,4.134-31.008,2.255-46.794,13.343
					c-10.97,7.705-16.494,45.719-18.844,68.199H289.416z"/>
				<path style="fill:#603913;" d="M73.44,358.904c7.647-0.994,15.315-1.828,22.996-2.51c0.488,3.749,0.921,7.506,1.297,11.268
					c0.559,5.597,0.989,11.206,1.297,16.823c-6.049,0.596-12.079,1.37-18.079,2.368c-5.213,0.868-10.405,1.909-15.549,3.147h1.52
					c2.595-0.607,5.202-1.168,7.823-1.674c8.043-1.555,16.156-2.673,24.305-3.468c0.088,1.631,0.168,3.263,0.235,4.895
					c0.003,0.083,0.006,0.165,0.009,0.248h0.509c-0.066-1.732-0.141-3.464-0.232-5.195c11.157-1.069,22.378-1.53,33.575-1.64
					c2.736-0.027,5.473-0.037,8.212-0.033c-0.116,2.289-0.24,4.579-0.376,6.867h0.527c0.139-2.288,0.269-4.576,0.385-6.865
					c11.333,0.026,22.679,0.317,34.005,0.856c-0.116,2.003-0.221,4.006-0.314,6.01h0.518c0.092-1.996,0.194-3.991,0.309-5.985
					c5.33,0.257,10.655,0.567,15.972,0.933c8.827,0.607,17.651,1.415,26.436,2.521c-0.064,0.649-0.13,1.298-0.189,1.948
					c-0.018,0.195-0.033,0.39-0.051,0.585h0.519c0.075-0.822,0.153-1.645,0.234-2.466c5.476,0.696,10.935,1.512,16.371,2.466h2.585
					c-6.273-1.149-12.582-2.107-18.912-2.907c0.681-6.773,1.62-13.52,2.823-20.221c0.478-2.661,1.002-5.315,1.562-7.96
					c7.246,0.914,14.477,1.955,21.686,3.125c13.909,2.256,27.74,4.986,41.465,8.173c-0.025-0.164-0.05-0.329-0.075-0.493
					c-11.233-2.599-22.536-4.894-33.896-6.871c-9.661-1.681-19.361-3.134-29.091-4.355c1.193-5.589,2.564-11.14,4.119-16.64
					c0.668-2.363,1.373-4.715,2.107-7.058c6.308,1.093,12.6,2.288,18.87,3.577c11.138,2.29,22.213,4.872,33.232,7.677
					c-0.046-0.18-0.092-0.361-0.139-0.54c-8.526-2.159-17.087-4.18-25.682-6.041c-8.679-1.879-17.396-3.587-26.147-5.098
					c1.808-5.736,3.809-11.411,6.008-17.009c0.719-1.832,1.463-3.653,2.225-5.467c-0.166-0.023-0.331-0.046-0.495-0.069
					c-0.378,0.9-0.753,1.802-1.12,2.706c-2.637,6.485-5.008,13.077-7.116,19.753c-10.003-1.718-20.049-3.177-30.134-4.324
					c-0.273-0.031-0.547-0.059-0.82-0.09c-0.162,0.124-0.324,0.246-0.487,0.368c10.478,1.172,20.917,2.679,31.307,4.47
					c-0.418,1.331-0.829,2.664-1.225,4.002c-1.927,6.505-3.599,13.085-5.017,19.719c-9.515-1.186-19.058-2.152-28.618-2.892
					c-5.239-0.405-10.484-0.74-15.732-1.009c0.575-4.951,1.219-9.895,1.935-14.828c-0.182,0.07-0.363,0.139-0.544,0.207
					c-0.705,4.855-1.342,9.721-1.908,14.595c-11.881-0.599-23.78-0.848-35.675-0.739c0.043-4.071,0.049-8.143,0.024-12.215
					c-0.176-0.054-0.353-0.11-0.531-0.166c0.005,0.743,0.012,1.486,0.014,2.229c0.012,3.386-0.002,6.771-0.038,10.156
					c-1.801,0.018-3.602,0.042-5.402,0.076c-13.326,0.256-26.643,0.964-39.919,2.136c-0.339-2.599-0.703-5.194-1.097-7.785
					c-0.835-5.506-1.793-10.993-2.873-16.457c8.356-1.32,16.763-2.32,25.195-3.024c-0.14-0.113-0.279-0.228-0.418-0.343
					c-8.315,0.706-16.606,1.701-24.849,3.008c-0.33-1.66-0.669-3.319-1.022-4.975c-1.121-5.27-2.358-10.515-3.707-15.731
					c-0.196,0.035-0.395,0.07-0.598,0.104c1.14,4.404,2.228,8.821,3.208,13.269c0.544,2.469,1.061,4.943,1.555,7.422
					c-1.427,0.229-2.852,0.464-4.276,0.712c-17.631,3.068-35.04,7.592-51.829,13.808c-0.031,0.119-0.062,0.238-0.092,0.358
					c14.953-5.43,30.299-9.681,45.933-12.7c3.436-0.663,6.882-1.269,10.337-1.821c0.913,4.609,1.741,9.234,2.481,13.874
					c0.548,3.436,1.047,6.88,1.499,10.33c-5.915,0.528-11.823,1.146-17.718,1.859c-9.658,1.167-19.286,2.586-28.869,4.256
					c-5.746,1.002-11.891,1.782-17.606,3.548c-0.022,0.132-0.043,0.263-0.064,0.395c4.26-1.277,8.752-1.989,13.019-2.768
					C54.539,361.604,63.974,360.134,73.44,358.904z M178.941,354.924c3.193,0.165,6.385,0.354,9.575,0.57
					c11.606,0.787,23.189,1.908,34.732,3.354c-0.355,1.674-0.698,3.35-1.02,5.031c-1.468,7.66-2.589,15.387-3.365,23.148
					c-6.386-0.799-12.791-1.443-19.2-1.966c-7.727-0.63-15.473-1.113-23.226-1.473c0.096-1.645,0.201-3.29,0.315-4.934
					C177.298,370.728,178.031,362.816,178.941,354.924z M142.444,369.96c0.174-5.271,0.286-10.544,0.344-15.817
					c11.882-0.105,23.767,0.149,35.634,0.754c-0.069,0.601-0.143,1.201-0.21,1.802c-0.73,6.536-1.336,13.087-1.817,19.646
					c-0.176,2.405-0.329,4.812-0.47,7.22c-11.332-0.518-22.68-0.771-34.01-0.817C142.127,378.486,142.303,374.223,142.444,369.96z
					 M130.772,354.369c3.828-0.112,7.657-0.185,11.486-0.222c-0.108,9.538-0.403,19.073-0.88,28.599
					c-0.275-0.001-0.551-0.003-0.826-0.004c-13.672-0.036-27.382,0.372-40.999,1.69c-0.254-4.756-0.598-9.508-1.034-14.251
					c-0.424-4.621-0.934-9.234-1.53-13.836C108.228,355.358,119.495,354.699,130.772,354.369z"/>
				<path style="opacity:0.3;fill:#BE1E2D;" d="M68.612,390c-0.452-5.626-1.098-11.238-1.932-16.818
					c-0.92-6.149-2.035-12.275-3.534-18.311c-1.579-6.357-3.573-12.643-6.327-18.595c-2.389-5.162-5.377-10.104-9.242-14.295
					C36.771,330.078,31.311,367.69,28.978,390H68.612z"/>
				<path style="opacity:0.3;fill:#BE1E2D;" d="M289.416,390c-2.332-22.31-7.792-59.922-18.599-68.018
					c-3.865,4.191-6.853,9.132-9.242,14.295c-2.754,5.952-4.748,12.238-6.327,18.595c-1.499,6.036-2.614,12.162-3.534,18.311
					c-0.835,5.58-1.481,11.192-1.933,16.818H289.416z"/>
				<path style="fill:#BE1E2D;" d="M160.442,354.074c44.032-0.045,68.288-40.692,69.849-43.389
					c-3.212-0.568-5.552-1.219-6.514-2.227c-3.947-4.134-6.173-3.022-6.173-3.022c-15.265,36.94-58.311,39.383-58.311,39.383h-0.192
					c0,0-43.046-2.442-58.311-39.383c0,0-2.227-1.113-6.173,3.022c-0.718,0.753-2.206,1.306-4.249,1.774l0.145,0.311
					C90.512,310.543,114.899,354.027,160.442,354.074z"/>
				<path style="opacity:0.64;fill:#BE1E2D;" d="M160.751,354.074c44.032-0.045,68.288-40.692,69.849-43.389
					c-3.213-0.568-5.552-1.219-6.514-2.227c-3.947-4.134-6.173-3.022-6.173-3.022c-15.265,36.94-58.311,39.383-58.311,39.383h-0.192
					c0,0-43.046-2.442-58.311-39.383c0,0-2.227-1.113-6.173,3.022c-0.718,0.753-2.206,1.306-4.249,1.774l0.145,0.311
					C90.821,310.543,115.208,354.027,160.751,354.074z"/>
			</g>
		</g>
		<g>
			<g>
				<path style="fill:#F39860;" d="M228.125,117.029c0,0,5.629,114.382-67.839,121.683h-0.037
					C86.782,231.41,92.41,117.029,92.41,117.029s3.601-60.693,69.882-60.693S228.125,117.029,228.125,117.029z"/>
				<radialGradient id="SVGID_1_" cx="122.478" cy="179.3647" r="23.9799" gradientUnits="userSpaceOnUse">
					<stop  offset="1.799800e-04" style="stop-color:#DF7469"/>
					<stop  offset="1" style="stop-color:#FFFFFF"/>
				</radialGradient>
				<circle style="opacity:0.3;fill:url(#SVGID_1_);" cx="122.478" cy="179.365" r="23.98"/>
				
					<radialGradient id="SVGID_00000069362962643041908410000005925469001511218338_" cx="198.3496" cy="179.3647" r="23.9799" gradientUnits="userSpaceOnUse">
					<stop  offset="1.799800e-04" style="stop-color:#DF7469"/>
					<stop  offset="1" style="stop-color:#FFFFFF"/>
				</radialGradient>
				
					<circle style="opacity:0.3;fill:url(#SVGID_00000069362962643041908410000005925469001511218338_);" cx="198.35" cy="179.365" r="23.98"/>
				<path style="fill:#F39860;" d="M228.125,117.029c0,0,0.448-60.693-65.833-60.693c-66.28,0-69.882,60.693-69.882,60.693
					s-2.794,56.803,21.267,92.905c-9.33-20.403-24.728-62.331-3.005-79.19c29.219-22.677,18.316-42.302,38.813-45.791
					c16.153-2.749,55.868,21.315,77.313,62.587C228.764,130.028,228.125,117.029,228.125,117.029z"/>
				<path style="fill:#3A3F4F;" d="M230.786,148.214c1.221-1.247,2.532-2.408,3.91-3.478c1.139-0.884,2.324-1.723,3.583-2.428
					c1.879-1.053,3.908-1.949,6.041-2.321c0.966-0.168,1.951-0.244,2.926-0.113c0.683,0.092,1.352,0.268,1.997,0.509
					c-0.862-7.005-2.998-14.661-6.924-22.92c-21.925-46.128-59.796-40.718-59.796-40.718s2.563,15.091,17.939,30.183
					c9.346,9.173,21.636,25.079,27.857,44.136C229.073,150.056,229.908,149.11,230.786,148.214z"/>
				<g>
					<g>
						<path style="fill:#F39860;" d="M99.246,160.058c-0.19-0.546-8.587-22.039-20.817-18.693c-4.712,1.289-5.84,6.037-5.638,10.435
							c0.296,6.432,2.587,13.434,5.732,19.038c2.899,5.165,7.165,9.674,12.836,11.716c3.147,1.133,10.073,3.164,12.007-0.991
							c0.696-1.495,0.36-3.321-0.095-4.831C99.469,164.121,99.246,160.058,99.246,160.058z"/>
						<path style="fill:#F39860;" d="M88.479,173.996c0,0-6.499-0.167-10.512-8.786c-4.013-8.619-2.97-19.27,2.195-19.15
							c5.165,0.12,14.162,14.279,14.162,14.279s-5.919,2.607-1.437,8.109c0,0-9.106-1.43-9.008-6.843
							c0.098-5.412,5.563-5.652,5.563-5.652s-7.924-9.6-11.084-6.823C75.199,151.907,79.516,172.304,88.479,173.996z"/>
					</g>
					<g>
						<path style="fill:#F39860;" d="M220.377,160.058c0.19-0.546,8.587-22.039,20.817-18.693c4.712,1.289,5.84,6.037,5.638,10.435
							c-0.296,6.432-2.587,13.434-5.732,19.038c-2.899,5.165-7.165,9.674-12.836,11.716c-3.147,1.133-10.073,3.164-12.007-0.991
							c-0.696-1.495-0.36-3.321,0.095-4.831C220.154,164.121,220.377,160.058,220.377,160.058z"/>
						<path style="fill:#F39860;" d="M231.143,173.996c0,0,6.499-0.167,10.512-8.786c4.013-8.619,2.97-19.27-2.195-19.15
							c-5.165,0.12-14.162,14.279-14.162,14.279s5.919,2.607,1.436,8.109c0,0,9.106-1.43,9.008-6.843
							c-0.098-5.412-5.563-5.652-5.563-5.652s7.924-9.6,11.085-6.823C244.424,151.907,240.107,172.304,231.143,173.996z"/>
					</g>
				</g>
				<g>
					<g>
						<path style="fill:#C63E48;" d="M159.809,215.65c13.776,0,18.839-10.457,18.839-10.457s-11.204-4.15-12.864-4.482
							c-1.66-0.332-6.224,1.743-6.224,1.743h-0.079c0,0-4.564-2.075-6.224-1.743c-1.66,0.332-12.863,4.482-12.863,4.482
							s5.062,10.457,18.839,10.457H159.809z"/>
						<path style="fill:#603913;" d="M180.447,204.849c-1.871,0.951-3.973,1.278-6.04,1.452c-2.036,0.175-4.174,0.15-6.217,0.007
							c-1.837,0.814-5.945,1.585-8.667,1.464c-2.998-0.075-5.973-0.675-8.774-1.731c-2.613,0.436-6.286,0.384-9.197-0.204
							c-1.014-0.222-2.025-0.504-2.957-0.991c-0.025-0.013-0.034-0.043-0.021-0.068c1.013,0.055,2.07,0.283,3.092,0.368
							c3.042,0.382,6.104,0.464,9.167,0.49c1.424,0.436,2.868,0.82,4.334,1.064c4.4,0.829,8.896,0.199,13.069-1.322
							c2.005,0.103,4.107,0.132,6.107,0.008c2.035-0.15,4.041-0.352,6.069-0.638C180.467,204.734,180.502,204.824,180.447,204.849
							L180.447,204.849z"/>
					</g>
					<g style="opacity:0.55;">
						<path style="opacity:0.74;fill:#E07B70;" d="M168.734,185.767c0,3.86-4.124,6.989-9.212,6.989
							c-5.088,0-9.212-3.129-9.212-6.989c0-3.86,4.124-14.817,9.212-14.817C164.609,170.95,168.734,181.907,168.734,185.767z"/>
						<g style="opacity:0.5;">
							<path style="fill:#E1A566;" d="M159.521,190.42c-4.621,0-8.437-2.584-9.099-5.95c-0.074,0.487-0.113,0.926-0.113,1.298
								c0,3.86,4.124,6.989,9.212,6.989c5.088,0,9.212-3.129,9.212-6.989c0-0.372-0.039-0.81-0.113-1.298
								C167.958,187.835,164.143,190.42,159.521,190.42z"/>
						</g>
						<path style="fill:#C63E48;" d="M151.036,188.379c-0.015,0.013-0.024,0.025-0.038,0.038c1.021,1.888,3.098,3.36,5.676,3.995
							C155.914,191.152,153.01,186.684,151.036,188.379z"/>
						<path style="fill:#C63E48;" d="M168.014,188.379c0.015,0.013,0.024,0.025,0.038,0.038c-1.021,1.888-3.098,3.36-5.676,3.995
							C163.136,191.152,166.04,186.684,168.014,188.379z"/>
					</g>
					<g>
						<g>
							<g>
								<g>
									<path style="fill:#FFFFFF;" d="M110.357,151.07c0,0-1.596,4.425,2.249,7.036c3.844,2.611,7.445,5.215,17.936,5.336
										c0,0,8.785-2.046,11.397-4.334l-0.005-1.399c0,0-6.369-12.688-17.231-11.997
										C113.843,146.402,110.357,151.07,110.357,151.07z"/>
									<path style="fill:#231F20;" d="M141.258,150.508c-4.906-6.578-13.183-10.425-21.375-9.639
										c-2.711,0.2-5.403,0.743-8.056,1.503c-0.072,0.021-0.147-0.021-0.168-0.093c-0.019-0.066,0.014-0.135,0.076-0.162
										c2.543-1.121,5.275-1.868,8.073-2.144c7.017-0.75,14.249,1.982,19.084,7.108c0.962,1.014,1.86,2.083,2.595,3.281
										c0.039,0.064,0.019,0.147-0.044,0.186C141.379,150.589,141.298,150.569,141.258,150.508L141.258,150.508z"/>
									<g>
										<path style="fill:#231F20;" d="M130.476,163.643c-7.353,0.833-16.6-0.87-20.334-7.997
											c-0.119-0.215,0.203-0.421,0.345-0.214c4.644,6.05,12.696,7.741,19.952,7.807
											C130.686,163.221,130.731,163.616,130.476,163.643L130.476,163.643z"/>
										<g>
											<path style="fill:#231F20;" d="M119.226,162.197c0,0-3.031-0.337-5.346,2.863c0,0-0.168-2.61,3.157-3.789
												L119.226,162.197z"/>
											<path style="fill:#231F20;" d="M116.317,161.008c0,0-2.112-0.473-3.993,1.604c0,0,0.084-1.854,2.521-2.427
												L116.317,161.008z"/>
											<path style="fill:#231F20;" d="M114.172,159.878c0,0-1.401-0.686-3.069,0.453c0,0,0.37-1.286,2.175-1.278
												L114.172,159.878z"/>
										</g>
									</g>
									<g>
										<circle style="fill:#006F92;" cx="127.341" cy="153.633" r="9.184"/>
										<circle style="fill:#241F20;" cx="127.341" cy="153.633" r="5.266"/>
										<path style="fill:#FFFFFF;" d="M128.779,151.759c0,1.83,1.483,3.313,3.313,3.313c1.83,0,3.313-1.483,3.313-3.313
											c0-1.83-1.483-3.313-3.313-3.313C130.262,148.446,128.779,149.93,128.779,151.759z"/>
									</g>
									<path style="fill:#231F20;" d="M139.247,160.635l4.731-0.073c0,0-5.168-17.469-19.434-17.469
										c-8.152,0-13.247,2.911-13.247,2.911l-5.532-0.146l2.984,2.184c0,0-2.329,2.984-8.807,2.693c0,0,6.041,4.804,11.427,1.82
										c5.386-2.984,10.263-7.206,18.415-4.949c8.152,2.256,12.155,11.5,12.155,11.5L139.247,160.635z"/>
								</g>
								<g>
									<path style="fill:#231F20;" d="M101.588,138.144c0,0,5.435-5.74,14.637-4.362c9.202,1.379,25.285,8.824,25.285,8.824
										l2.604-5.532l-2.451-3.226c0,0,1.353,2.056,0.67,3.843l-2.052-4.169l-24.555-5.735
										C115.725,127.788,106.823,129.465,101.588,138.144z"/>
									<polygon style="fill:#231F20;" points="145.039,137.781 142.613,142.726 143.775,142.818 145.608,138.945 									"/>
								</g>
							</g>
						</g>
						<g>
							<g>
								<g>
									<path style="fill:#FFFFFF;" d="M208.685,151.07c0,0,1.596,4.425-2.249,7.036c-3.844,2.611-7.445,5.215-17.936,5.336
										c0,0-8.785-2.046-11.397-4.334l0.005-1.399c0,0,6.369-12.688,17.231-11.997C205.2,146.402,208.685,151.07,208.685,151.07z"
										/>
									<path style="fill:#231F20;" d="M177.785,150.508c4.906-6.578,13.183-10.425,21.376-9.639
										c2.711,0.2,5.403,0.743,8.056,1.503c0.072,0.021,0.147-0.021,0.168-0.093c0.019-0.066-0.014-0.135-0.076-0.162
										c-2.543-1.121-5.275-1.868-8.073-2.144c-7.017-0.75-14.249,1.982-19.084,7.108c-0.962,1.014-1.86,2.083-2.595,3.281
										c-0.039,0.064-0.019,0.147,0.044,0.186C177.664,150.589,177.745,150.569,177.785,150.508L177.785,150.508z"/>
									<g>
										<path style="fill:#231F20;" d="M188.566,163.643c7.353,0.833,16.6-0.87,20.334-7.997c0.119-0.215-0.203-0.421-0.345-0.214
											c-4.644,6.05-12.696,7.741-19.952,7.807C188.357,163.221,188.312,163.616,188.566,163.643L188.566,163.643z"/>
										<g>
											<path style="fill:#231F20;" d="M199.816,162.197c0,0,3.031-0.337,5.346,2.863c0,0,0.168-2.61-3.157-3.789
												L199.816,162.197z"/>
											<path style="fill:#231F20;" d="M202.726,161.008c0,0,2.112-0.473,3.993,1.604c0,0-0.084-1.854-2.521-2.427
												L202.726,161.008z"/>
											<path style="fill:#231F20;" d="M204.87,159.878c0,0,1.401-0.686,3.069,0.453c0,0-0.37-1.286-2.175-1.278L204.87,159.878z
												"/>
										</g>
									</g>
									<g>
										<circle style="fill:#006F92;" cx="191.701" cy="153.633" r="9.184"/>
										<circle style="fill:#241F20;" cx="191.701" cy="153.633" r="5.266"/>
										<path style="fill:#FFFFFF;" d="M190.263,151.759c0,1.83-1.483,3.313-3.313,3.313c-1.83,0-3.313-1.483-3.313-3.313
											c0-1.83,1.483-3.313,3.313-3.313C188.78,148.446,190.263,149.93,190.263,151.759z"/>
									</g>
									<path style="fill:#231F20;" d="M179.796,160.635l-4.731-0.073c0,0,5.168-17.469,19.434-17.469
										c8.152,0,13.247,2.911,13.247,2.911l5.532-0.146l-2.984,2.184c0,0,2.329,2.984,8.807,2.693c0,0-6.041,4.804-11.427,1.82
										c-5.386-2.984-10.263-7.206-18.415-4.949c-8.152,2.256-12.155,11.5-12.155,11.5L179.796,160.635z"/>
								</g>
								<g>
									<path style="fill:#231F20;" d="M217.455,138.144c0,0-5.435-5.74-14.637-4.362c-9.202,1.379-25.285,8.824-25.285,8.824
										l-2.604-5.532l2.451-3.226c0,0-1.353,2.056-0.67,3.843l2.052-4.169l24.555-5.735
										C203.318,127.788,212.22,129.465,217.455,138.144z"/>
									<polygon style="fill:#231F20;" points="174.004,137.781 176.43,142.726 175.268,142.818 173.435,138.945 									"/>
								</g>
							</g>
						</g>
					</g>
				</g>
			</g>
			<g>
				<path style="fill:#3A3F4F;" d="M180.086,57.873l-15.818,23.153c0,0-47.184-11.383-77.992,45.387
					c0,0-14.885-92.425,53.309-92.425C207.779,33.988,180.086,57.873,180.086,57.873z"/>
				<path style="opacity:0.45;fill:#3A3F4F;" d="M180.086,57.873l-15.818,23.153c0,0-47.184-11.383-77.992,45.387
					c0,0-14.885-92.425,53.309-92.425C207.779,33.988,180.086,57.873,180.086,57.873z"/>
			</g>
			<path style="fill:#3A3F4F;" d="M179.546,70.135c-0.933,1.111,1.862,7.559,2.262,8.612c2.72,7.166,7.142,13.634,12.575,19.015
				c8.148,8.07,17.995,11.631,27.668,17.251c23.629,13.728,40.222,40.068,46.616,66.27c4.531,18.568-3.85,37.026,4.81,54.771
				c10.807,22.145,36.049,41.219,33.582,68.23c-0.048,0.52-0.107,1.039-0.177,1.556c0,0,17.159-28.598-9.332-70.14
				C271.058,194.159,273.165,36.42,198.51,47.558C198.51,47.558,179.565,70.113,179.546,70.135z"/>
			<path style="fill:#3A3F4F;" d="M164.268,81.026c0,0,1.691-40.868-21.984-35.512c-23.675,5.355,4.791,53.55-33.821,78.634
				c-38.613,25.084-83.99,44.25-59.469,83.99c24.52,39.74,44.531,50.168,27.903,88.781c0,0,3.382-32.976-16.065-43.122
				c-19.447-10.146-49.605-57.778-29.876-82.299s35.23-58.06,36.922-82.58c1.691-24.521,3.378-78.6,75.252-78.916
				c63.979-0.282,60.315,40.867,60.315,40.867S193.083,75.645,164.268,81.026z"/>
		</g>
	</g>
</g>
</svg>
